<svg width="75" height="75" viewBox="0 0 75 75" fill="none" xmlns="http://www.w3.org/2000/svg">
<g clip-path="url(#clip0_1465_5188)">
<path d="M9.73981 60.3878C3.97321 53.4014 1.05368 44.4972 1.56403 35.4528C2.07439 26.4083 5.9771 17.8891 12.493 11.5958C19.009 5.30251 27.6587 1.69825 36.7154 1.50255C45.7722 1.30684 54.5695 4.5341 61.3512 10.54M65.6518 15.0882C71.2388 22.101 74.007 30.9467 73.4144 39.8933C72.8219 48.84 68.9112 57.2433 62.448 63.458C55.9849 69.6727 47.4348 73.2511 38.4718 73.4927C29.5088 73.7343 20.7783 70.6216 13.9898 64.7641" stroke="#EF6A37" stroke-width="2.33271" stroke-miterlimit="10"/>
<path d="M20.6356 64.5913H13.9498" stroke="#EF6A37" stroke-width="2.33271" stroke-miterlimit="10"/>
<path d="M61.3514 11.1351V3.96924" stroke="#EF6A37" stroke-width="2.33271" stroke-miterlimit="10"/>
<path d="M54.6452 10.6299H61.3512" stroke="#EF6A37" stroke-width="2.33271" stroke-miterlimit="10"/>
<path d="M13.9897 71.13V64.0854" stroke="#EF6A37" stroke-width="2.33271" stroke-miterlimit="10"/>
<path d="M59.2654 21.3848L57.7797 23.1181" stroke="#EF6A37" stroke-width="2.33271" stroke-miterlimit="10"/>
<path d="M22.9751 33.2453L36.9834 47.385L54.9738 26.3877" stroke="#EF6A37" stroke-width="2.33271" stroke-miterlimit="10"/>
<path d="M57.3281 31.6261C58.8488 36.7867 58.3531 42.3321 55.9411 47.1411C53.5292 51.9501 49.3811 55.6637 44.3356 57.5309C39.2901 59.3982 33.7237 59.2797 28.7622 57.1995C23.8007 55.1193 19.8143 51.2326 17.6091 46.3254C15.404 41.4182 15.1446 35.8566 16.8835 30.7655C18.6223 25.6743 22.2297 21.4334 26.9761 18.9005C31.7224 16.3675 37.2535 15.7315 42.4509 17.1211C47.6483 18.5106 52.1241 21.822 54.9732 26.3857L57.7778 23.111" stroke="#EF6A37" stroke-width="2.33271" stroke-miterlimit="10"/>
</g>
<defs>
<clipPath id="clip0_1465_5188">
<rect width="75" height="75" fill="white"/>
</clipPath>
</defs>
</svg>
