<svg width="75" height="75" viewBox="0 0 75 75" fill="none" xmlns="http://www.w3.org/2000/svg">
<g clip-path="url(#clip0_1465_5109)">
<path d="M37.5236 44.9339C41.6097 44.9339 44.9222 41.6215 44.9222 37.5353C44.9222 33.4492 41.6097 30.1367 37.5236 30.1367C33.4375 30.1367 30.125 33.4492 30.125 37.5353C30.125 41.6215 33.4375 44.9339 37.5236 44.9339Z" stroke="#EF6A37" stroke-width="2.33271" stroke-miterlimit="10"/>
<path d="M37.5236 44.9339C41.6097 44.9339 44.9222 41.6215 44.9222 37.5353C44.9222 33.4492 41.6097 30.1367 37.5236 30.1367C33.4375 30.1367 30.125 33.4492 30.125 37.5353C30.125 41.6215 33.4375 44.9339 37.5236 44.9339Z" stroke="#EF6A37" stroke-width="2.33271" stroke-miterlimit="10"/>
<path d="M37.5236 44.9339C41.6097 44.9339 44.9222 41.6215 44.9222 37.5353C44.9222 33.4492 41.6097 30.1367 37.5236 30.1367C33.4375 30.1367 30.125 33.4492 30.125 37.5353C30.125 41.6215 33.4375 44.9339 37.5236 44.9339Z" stroke="#EF6A37" stroke-width="2.33271" stroke-miterlimit="10"/>
<path d="M56.2172 37.5286C56.2171 36.3517 56.1072 35.1773 55.8888 34.0209L60.6852 31.1749C60.2171 29.4289 59.5493 27.7426 58.695 26.1496L53.3363 27.5179C51.993 25.4041 50.2404 23.5805 48.1817 22.1543L49.5649 16.7359C47.7666 15.6934 45.8396 14.8905 43.8331 14.3477L40.9821 19.154C39.8501 18.9415 38.7008 18.8349 37.549 18.8356C36.3992 18.8357 35.2517 18.9406 34.1209 19.149L31.2699 14.3477C29.312 14.8762 27.4293 15.652 25.6675 16.6563L27.0457 22.0647C25.0899 23.3966 23.4021 25.0845 22.0702 27.0402L16.6668 25.657C15.6727 27.3993 14.902 29.2599 14.373 31.1948L19.1695 34.0408C18.7318 36.3588 18.7318 38.7382 19.1695 41.0563L14.373 43.9022C14.955 46.0238 15.8273 48.0548 16.9653 49.9376L22.4383 48.5444C23.7385 50.3293 25.3438 51.8705 27.18 53.097L25.8018 58.4855C27.4845 59.4359 29.2775 60.1762 31.1405 60.6897L33.9816 55.8983C36.3462 56.356 38.7767 56.356 41.1414 55.8983L43.9824 60.6897C45.8951 60.1628 47.734 59.3972 49.4555 58.4109L48.0723 53.0075C50.0295 51.6773 51.7176 49.9892 53.0478 48.032L58.4512 49.4151C59.4472 47.6756 60.218 45.8164 60.7449 43.8824L55.9485 41.0364C56.1469 39.878 56.2368 38.7037 56.2172 37.5286ZM37.5242 44.9272C36.0609 44.9272 34.6304 44.4933 33.4137 43.6803C32.197 42.8673 31.2487 41.7119 30.6887 40.36C30.1287 39.008 29.9822 37.5204 30.2677 36.0852C30.5532 34.65 31.2578 33.3317 32.2925 32.297C33.3272 31.2623 34.6456 30.5577 36.0808 30.2722C37.516 29.9867 39.0035 30.1332 40.3555 30.6932C41.7074 31.2532 42.8629 32.2015 43.6759 33.4182C44.4888 34.6349 44.9228 36.0653 44.9228 37.5286C44.9228 39.4908 44.1433 41.3727 42.7558 42.7602C41.3682 44.1477 39.4864 44.9272 37.5242 44.9272Z" stroke="#EF6A37" stroke-width="2.33271" stroke-miterlimit="10"/>
<path d="M37.5236 44.9339C41.6097 44.9339 44.9222 41.6215 44.9222 37.5353C44.9222 33.4492 41.6097 30.1367 37.5236 30.1367C33.4375 30.1367 30.125 33.4492 30.125 37.5353C30.125 41.6215 33.4375 44.9339 37.5236 44.9339Z" stroke="#EF6A37" stroke-width="2.33271" stroke-miterlimit="10"/>
<path d="M41.1082 55.8827L40.959 55.6289" stroke="#EF6A37" stroke-width="2.33271" stroke-miterlimit="10"/>
<path d="M34.0985 55.6289L33.9492 55.8827" stroke="#EF6A37" stroke-width="2.33271" stroke-miterlimit="10"/>
<path d="M55.8919 34.0234L55.7617 34.0985" stroke="#EF6A37" stroke-width="2.33271" stroke-miterlimit="10"/>
<path d="M55.8919 41.0399L55.7617 40.9648" stroke="#EF6A37" stroke-width="2.33271" stroke-miterlimit="10"/>
<path d="M10.1785 60.056C4.48114 53.178 1.59155 44.402 2.08803 35.4846C2.58451 26.5672 6.43048 18.1662 12.8562 11.9632C19.2818 5.76011 27.8131 2.21264 36.7425 2.03079C45.6719 1.84894 54.3406 5.04613 61.0135 10.9824M65.2477 15.4604C70.7485 22.365 73.474 31.0742 72.8905 39.8828C72.3071 48.6914 68.4568 56.9651 62.0934 63.0838C55.73 69.2026 47.3118 72.7258 38.4871 72.9637C29.6624 73.2015 21.0666 70.1369 14.3829 64.3698M56.2171 37.5318C56.217 36.3549 56.1071 35.1805 55.8887 34.0241L60.6851 31.1781C60.217 29.4321 59.5491 27.7458 58.6949 26.1528L53.3362 27.5211C51.9929 25.4073 50.2403 23.5837 48.1816 22.1575L49.5648 16.7391C47.7664 15.6966 45.8395 14.8937 43.833 14.3509L40.982 19.1572C39.85 18.9447 38.7007 18.8381 37.5489 18.8388C36.399 18.8389 35.2516 18.9438 34.1208 19.1522L31.2698 14.3509C29.3119 14.8794 27.4292 15.6552 25.6673 16.6595L27.0456 22.0679C25.0898 23.3998 23.402 25.0877 22.0701 27.0434L16.6666 25.6602C15.6725 27.4025 14.9019 29.263 14.3729 31.198L19.1693 34.044C18.7317 36.362 18.7317 38.7414 19.1693 41.0595L14.3729 43.9054C14.9549 46.027 15.8272 48.058 16.9652 49.9408L22.4382 48.5476C23.7384 50.3325 25.3436 51.8737 27.1799 53.1002L25.8017 58.4887C27.4844 59.4391 29.2774 60.1793 31.1404 60.6929L33.9815 55.9014C36.3461 56.3592 38.7766 56.3592 41.1413 55.9014L43.9823 60.6929C45.895 60.166 47.7338 59.4003 49.4553 58.4141L48.0721 53.0107C50.0293 51.6805 51.7175 49.9924 53.0477 48.0352L58.4511 49.4183C59.4471 47.6788 60.2178 45.8196 60.7448 43.8856L55.9484 41.0396C56.1468 39.8812 56.2367 38.7069 56.2171 37.5318Z" stroke="#EF6A37" stroke-width="2.33271" stroke-miterlimit="10"/>
<path d="M19.2903 40.9648L19.1602 41.0399" stroke="#EF6A37" stroke-width="2.33271" stroke-miterlimit="10"/>
<path d="M19.2903 34.0985L19.1602 34.0234" stroke="#EF6A37" stroke-width="2.33271" stroke-miterlimit="10"/>
<path d="M22.2127 27.0635L22.0625 27.0234" stroke="#EF6A37" stroke-width="2.33271" stroke-miterlimit="10"/>
<path d="M27.0624 22.2116L27.0273 22.0664" stroke="#EF6A37" stroke-width="2.33271" stroke-miterlimit="10"/>
<path d="M52.9917 48.035L52.8516 48" stroke="#EF6A37" stroke-width="2.33271" stroke-miterlimit="10"/>
<path d="M48.0331 52.9917L47.998 52.8516" stroke="#EF6A37" stroke-width="2.33271" stroke-miterlimit="10"/>
<path d="M48.1583 22.1562L47.9941 22.7881" stroke="#EF6A37" stroke-width="2.33271" stroke-miterlimit="10"/>
<path d="M53.3154 27.5195L52.8477 27.6389" stroke="#EF6A37" stroke-width="2.33271" stroke-miterlimit="10"/>
<path d="M27.2938 52.4961L27.1445 53.0832" stroke="#EF6A37" stroke-width="2.33271" stroke-miterlimit="10"/>
<path d="M22.6182 48.4727L22.4043 48.5274" stroke="#EF6A37" stroke-width="2.33271" stroke-miterlimit="10"/>
<path d="M20.9068 64.1953H14.3242" stroke="#EF6A37" stroke-width="2.33271" stroke-miterlimit="10"/>
<path d="M60.9941 11.5592V4.50391" stroke="#EF6A37" stroke-width="2.33271" stroke-miterlimit="10"/>
<path d="M54.3926 11.0638L61.6003 10.9375" stroke="#EF6A37" stroke-width="2.33271" stroke-miterlimit="10"/>
<path d="M14.3652 70.639V63.7031" stroke="#EF6A37" stroke-width="2.33271" stroke-miterlimit="10"/>
</g>
<defs>
<clipPath id="clip0_1465_5109">
<rect width="75" height="75" fill="white"/>
</clipPath>
</defs>
</svg>
