<svg width="75" height="75" viewBox="0 0 75 75" fill="none" xmlns="http://www.w3.org/2000/svg">
<path d="M6.25085 73.9934V73.9486V53.6563V31.9482V32.553" stroke="#EF6A37" stroke-width="2.33271" stroke-miterlimit="10"/>
<path d="M15.2216 11.0571H27.5156H47.6177H59.5929" stroke="#EF6A37" stroke-width="2.33271" stroke-miterlimit="10"/>
<path d="M45.1223 46.4224H29.6178" stroke="#EF6A37" stroke-width="2.33271" stroke-miterlimit="10"/>
<path d="M41.8614 51.7964H32.7332" stroke="#EF6A37" stroke-width="2.33271" stroke-miterlimit="10"/>
<path d="M23.0963 53.4917H27.2745M47.8521 53.4917H52.1141" stroke="#EF6A37" stroke-width="2.33271" stroke-miterlimit="10"/>
<path d="M37.5664 63.7872L27.2748 53.4956L15.2214 41.4421L6.17709 32.4034H6.1715L5.93192 32.4033" stroke="#EF6A37" stroke-width="2.33271" stroke-miterlimit="10"/>
<path d="M69.0674 73.8288L68.9444 73.6833L59.5925 62.4689L52.1143 53.4917" stroke="#EF6A37" stroke-width="2.33271" stroke-miterlimit="10"/>
<path d="M6.1328 73.8288L6.17195 73.784L15.2218 62.9387L23.0971 53.4917" stroke="#EF6A37" stroke-width="2.33271" stroke-miterlimit="10"/>
<path d="M68.9559 32.3892L68.9447 32.4003L59.5928 41.7523L47.8526 53.4925L37.5666 63.7841" stroke="#EF6A37" stroke-width="2.33271" stroke-miterlimit="10"/>
<path d="M37.5667 1.00635L27.5156 11.0574" stroke="#EF6A37" stroke-width="2.33271" stroke-miterlimit="10"/>
<path d="M15.2197 23.3496L6.17539 32.3995H6.1698" stroke="#EF6A37" stroke-width="2.33271" stroke-miterlimit="10"/>
<path d="M68.9574 32.3932L68.9463 32.3876L59.5943 23.0356" stroke="#EF6A37" stroke-width="2.33271" stroke-miterlimit="10"/>
<path d="M47.6176 11.0574L37.5666 1.00635" stroke="#EF6A37" stroke-width="2.33271" stroke-miterlimit="10"/>
<path d="M6.1328 73.8296H6.17195H15.2218H27.5158H47.6124H59.5931H68.9451H69.0681" stroke="#EF6A37" stroke-width="2.33271" stroke-miterlimit="10"/>
<path d="M15.2216 11.0571V23.3511V41.4397" stroke="#EF6A37" stroke-width="2.33271" stroke-miterlimit="10"/>
<path d="M59.5943 41.7529V23.0323V11.0571" stroke="#EF6A37" stroke-width="2.33271" stroke-miterlimit="10"/>
<path d="M68.9439 73.8313V73.6858V53.4942V32.402V32.3853" stroke="#EF6A37" stroke-width="2.33271" stroke-miterlimit="10"/>
<path d="M37.3313 35.1925C40.9918 35.1925 43.9593 32.2251 43.9593 28.5645C43.9593 24.904 40.9918 21.9365 37.3313 21.9365C33.6707 21.9365 30.7032 24.904 30.7032 28.5645C30.7032 32.2251 33.6707 35.1925 37.3313 35.1925Z" stroke="#EF6A37" stroke-width="2.33271" stroke-miterlimit="10"/>
<path d="M48.3013 34.0219C49.1408 32.3246 49.5772 30.4564 49.5766 28.5629L49.5878 28.5517C49.5864 25.5479 48.4813 22.6493 46.4827 20.407C44.484 18.1646 41.7311 16.7348 38.7472 16.3894C35.7634 16.044 32.7566 16.807 30.2984 18.5333C27.8403 20.2597 26.1022 22.8291 25.4146 25.7532C24.7269 28.6772 25.1377 31.7519 26.5687 34.393C27.9997 37.034 30.3513 39.0571 33.1763 40.0778C36.0014 41.0984 39.103 41.0455 41.8916 39.929C43.1126 39.4401 44.2364 38.7622 45.2264 37.9289" stroke="#EF6A37" stroke-width="2.33271" stroke-miterlimit="10"/>
<path d="M48.3007 34.0245C47.9437 34.2646 47.5159 34.377 47.0869 34.3433C45.5656 34.1755 44.2623 31.597 43.9435 27.8887" stroke="#EF6A37" stroke-width="2.33271" stroke-miterlimit="10"/>
</svg>
