<svg width="280" height="280" viewBox="0 0 280 280" fill="none" xmlns="http://www.w3.org/2000/svg">
<path d="M23.3333 148.05H23.9399V150.395H23.3333V148.05ZM23.3333 152.414H23.9399V154.747H23.3333V152.414ZM256.048 152.414H256.667V154.747H256.048V152.414ZM256.048 143.699H256.667V146.044H256.048V143.699ZM256.048 148.05H256.667V150.395H256.048V148.05ZM23.3333 143.699H23.9399V146.044H23.3333V143.699ZM228.433 146.044L230.16 143.71L256.048 143.699V65.9521H23.9399V143.699H58.0883L56.3616 146.032L23.9399 146.044V148.05L54.8332 148.039L53.1183 150.372H23.9399V152.39H51.6832L49.9683 154.724H23.9399V214.025H256.107V154.747H222.04L223.743 152.414H256.048V150.395H225.225L226.952 148.062H256.048V146.055L228.433 146.044ZM216.44 121.742L202.113 141.167H179.422L193.76 121.707L216.44 121.742ZM56.9099 131.834L64.3649 121.707H107.333C118.253 121.707 121.042 130.34 117.985 134.482L113.062 141.167H96.4716C93.3216 141.167 94.2666 139.872 94.8033 139.16C95.8416 137.749 97.5449 135.357 98.5599 133.98C99.5749 132.604 99.5982 131.834 97.5449 131.834H56.9099ZM90.4166 154.747H53.8999L68.8333 134.389H87.4999C89.5532 134.389 89.5299 135.17 88.5266 136.535L84.7349 141.692C84.2099 142.415 83.2533 143.71 86.4033 143.71H111.253C108.901 147.068 105.786 149.819 102.164 151.737C98.5413 153.656 94.5153 154.688 90.4166 154.747ZM131.53 154.747H110.11L118.277 143.699H139.65L131.53 154.747ZM162.505 154.747H141.085L149.252 143.699H170.672L162.505 154.747ZM120.073 141.167L134.4 121.707H155.808L147.642 132.86H157.197L165.422 121.707H186.783L172.457 141.167H120.073ZM218.073 154.7H183.727C174.953 154.7 172.573 150.465 175.257 146.837C176.027 145.81 177.59 143.664 177.59 143.664H226.228L218.073 154.7Z" fill="#D2D2D2"/>
</svg>
