<svg width="90" height="90" viewBox="0 0 90 90" fill="none" xmlns="http://www.w3.org/2000/svg">
<rect width="90" height="90" rx="10" fill="#EBEFF2"/>
<path d="M45.2779 58.9645L43.8683 56.8212M46.8329 53.3624L49.4706 54.7719M27.0687 33.5982L25.7123 31.0136M24.1041 36.5629L21.5197 35.2063M52.2947 47.9538L49.4706 47.4332M49.4705 42.9862L52.2947 42.0245M21.5197 47.4332L18.6955 47.9538M18.6955 42.0245L21.6336 42.4921M49.4705 35.2064L46.8329 37.057M43.3742 33.5982L45.2779 31.0138M27.0687 56.3271L25.7123 58.9645M21.5197 54.7719L23.61 53.3624M38.9273 27.6689L37.939 31.1276M33.2198 31.3415L32.2262 27.5026M37.939 58.9645L38.4597 61.7887M32.5305 61.7887L32.998 58.9645M77 35.6011H63.165M77 35.6011V31.1542M77 35.6011L77 54.3771M63.165 35.6011V31.1542M63.165 35.6011V54.3771M63.165 31.1542V22.7544H77V31.1542M63.165 31.1542H66.1031M77 31.1542C77 31.1542 75.3595 31.1542 74.0088 31.1542M63.165 54.3771H77M63.165 54.3771V58.8241M77 54.3771V58.8241M77 58.8241L77 67.2239H63.165V58.8241M77 58.8241H74.0088M63.165 58.8241H66.1297M63.165 27.2013H66.1031M74.0088 27.2013H77M77 62.7769H74.0088M66.1031 62.7769H63.165M28.5074 51.9768C24.6482 48.1176 24.6482 41.8606 28.5074 38.0014C32.3666 34.1422 38.6236 34.1422 42.4828 38.0014C46.342 41.8606 46.342 48.1176 42.4828 51.9768C38.6236 55.8361 32.3666 55.8361 28.5074 51.9768ZM22.9173 57.567C15.9707 50.6204 15.9707 39.3578 22.9173 32.4113C29.8638 25.4647 41.1265 25.4647 48.073 32.4113C55.0196 39.3578 55.0196 50.6204 48.073 57.567C41.1264 64.5136 29.8638 64.5136 22.9173 57.567ZM19.6571 60.8006C10.781 51.9245 10.781 37.5333 19.6571 28.6572C28.5333 19.781 42.9244 19.781 51.8006 28.6572C60.6768 37.5333 60.6768 51.9245 51.8006 60.8006C42.9244 69.6768 28.5333 69.6768 19.6571 60.8006ZM25.7124 54.7719C20.3095 49.369 20.3095 40.6092 25.7124 35.2063C31.1153 29.8034 39.8751 29.8035 45.278 35.2063C50.6809 40.6092 50.6809 49.369 45.278 54.7719C39.8751 60.1748 31.1153 60.1748 25.7124 54.7719ZM74.0354 29.1778C74.0354 31.3608 72.2656 33.1306 70.0825 33.1306C67.8994 33.1306 66.1297 31.3608 66.1297 29.1778C66.1297 26.9947 67.8994 25.2249 70.0825 25.2249C72.2656 25.2249 74.0354 26.9947 74.0354 29.1778ZM66.1297 60.8005C66.1297 58.6174 67.8994 56.8477 70.0825 56.8477C72.2656 56.8477 74.0354 58.6174 74.0354 60.8005C74.0354 62.9836 72.2656 64.7534 70.0825 64.7534C67.8994 64.7534 66.1297 62.9836 66.1297 60.8005Z" stroke="black" stroke-linecap="square" stroke-linejoin="round"/>
</svg>
