<svg width="90" height="90" viewBox="0 0 90 90" fill="none" xmlns="http://www.w3.org/2000/svg">
<rect width="90" height="90" rx="10" fill="#EBEFF2"/>
<path d="M21 22L13 30.5M21 22H77V67.5H13V30.5M21 22V30.5H13M34.5 27.5H26.5V40H34.5M34.5 27.5H47V40H34.5M34.5 27.5V40M69.5 31.5V36M61 27.5H53V40.5H57M61 27.5H65.5V40.5H61M61 27.5V28.5M61 40.5H57M61 40.5V38.5M57 40.5V39.5M61 30V31M61 33V34.5M61 36V37M57 28.5V29.5M57 31V32M57 33.5V34.5M57 36V37M43 58.5H47V46H43M43 58.5H38.5M43 58.5V55.5M38.5 58.5H26V52H34V46H38.5M38.5 58.5V56.5M22 52V58.5M18 45.5V58.5M38.5 46H43M38.5 46V47.5M43 46V46.75M38.5 49V51.5M38.5 53V54M43 48.25V49M43 50.5V52M43 53.25V54M26 62.5H47M57 55.5H53V59.5M57 55.5V59.5M57 55.5H64.5M57 59.5V64M57 59.5H53M57 59.5H64.5M57 64V67.5M57 64H64.5M57 64H53M64.5 55.5H77M64.5 55.5V59.5M64.5 67.5V64M64.5 64V59.5M64.5 64H77M64.5 59.5H77M53 59.5V64M53 67.5V64M70.5 67.5V64M43 33.5C43 34.8807 41.8807 36 40.5 36C39.1193 36 38 34.8807 38 33.5C38 32.1193 39.1193 31 40.5 31C41.8807 31 43 32.1193 43 33.5Z" stroke="black" stroke-linecap="square"/>
</svg>
