<svg width="90" height="90" viewBox="0 0 90 90" fill="none" xmlns="http://www.w3.org/2000/svg">
<rect width="90" height="90" rx="10" fill="#EBEFF2"/>
<path d="M27 13V34H40.5M62.5 23.5V34H49M62.5 23.5V13M62.5 23.5H64M40.5 34C40.5 35.5 40.9 38 44.5 38C48.1 38 49 36 49 34M40.5 34H49M27 23.5H57M32 34V42H35M57.5 34V42H54.5M35 46L33.5 48V50.5H35.5M35 46H54.5M35 46V42M54.5 46L56.5 48V50.5H54M54.5 46V42M35 42H54.5M35.5 50.5V54.5M35.5 50.5H54M35.5 54.5H34V63H34.5M35.5 54.5H41.5M54 50.5V54.5M54 54.5H48M54 54.5H55.5V63H34.5M41.5 54.5V59H48V54.5M41.5 54.5H48M35.125 75L34.5 77H31.5C30.5 77 29 75.5 28.5 74.5C28 73.5 27.5 71 29.5 69C31.6479 67.0474 31.8521 66.9526 34 65L34.5 64.5V63M35.125 75L37 69C38 66.5 41 67.5 40.5 70C39.9567 71.9017 39.4595 73.5266 39.0397 75M35.125 75H39.0397M39.0397 75C38.8414 75.6961 38.6604 76.3583 38.5 77H47L47.625 75M47.625 75L49.5 69C50.5 66.5 53.5 67.5 53 70C52.4567 71.9017 51.9595 73.5266 51.5397 75H51.5M47.625 75H51.5M51.5 75C51.3017 75.6961 51.1207 76.3583 50.9603 77H57.5C58.5 77 60 75.5 60.5 74.5C61 73.5 61.5 71 59.5 69C57.3521 67.0474 57.1479 66.9526 55 65V63" stroke="black" stroke-linecap="round"/>
</svg>
