<svg width="90" height="90" viewBox="0 0 90 90" fill="none" xmlns="http://www.w3.org/2000/svg">
<rect width="90" height="90" rx="10" fill="#EBEFF2"/>
<path fill-rule="evenodd" clip-rule="evenodd" d="M39.5149 12.3787C39.5706 12.1561 39.7706 12 40 12H51.5C51.7328 12 51.9348 12.1607 51.9872 12.3876L53.4317 18.647L58.4897 20.9461L64.2764 18.0528C64.4632 17.9594 64.6884 17.9919 64.8412 18.1345L72.3412 25.1345C72.5031 25.2857 72.5463 25.5254 72.4472 25.7236L69.5496 31.5189L71.8649 37.0758L77.6213 38.5149C77.8438 38.5706 78 38.7706 78 39V50.5C78 50.7444 77.8233 50.953 77.5822 50.9932L71.8641 51.9462L69.4667 58.1795C69.3675 58.4372 69.0782 58.5658 68.8205 58.4667C68.5628 58.3675 68.4342 58.0782 68.5333 57.8205L71.0333 51.3205C71.0969 51.1552 71.2431 51.0359 71.4178 51.0068L77 50.0764V39.3904L71.3787 37.9851C71.2254 37.9467 71.0992 37.8382 71.0385 37.6923L68.5385 31.6923C68.4826 31.5582 68.4878 31.4064 68.5528 31.2764L71.3857 25.6106L64.4128 19.1026L58.7236 21.9472C58.5887 22.0147 58.4305 22.0176 58.2931 21.9552L52.7931 19.4552C52.6514 19.3908 52.5478 19.2641 52.5128 19.1124L51.1022 13H40.3904L38.9851 18.6213C38.9497 18.7629 38.8542 18.8819 38.7236 18.9472L32.7236 21.9472C32.5828 22.0176 32.4172 22.0176 32.2764 21.9472L26.6106 19.1143L20.1117 26.0774L22.9389 31.2606C23.0115 31.3936 23.0198 31.5524 22.9615 31.6923L20.4615 37.6923C20.3995 37.8411 20.2695 37.9509 20.1124 37.9872L14 39.3978V50.1022L20.1124 51.5128C20.2743 51.5502 20.407 51.6655 20.4667 51.8205L22.9667 58.3205C23.0658 58.5782 22.9372 58.8675 22.6795 58.9667C22.4218 59.0658 22.1325 58.9372 22.0333 58.6795L19.6287 52.4275L13.3876 50.9872C13.1607 50.9348 13 50.7328 13 50.5V39C13 38.7672 13.1607 38.5652 13.3876 38.5128L19.6373 37.0706L21.9463 31.529L19.0611 26.2394C18.9579 26.0503 18.9875 25.8163 19.1345 25.6588L26.1345 18.1588C26.2857 17.9969 26.5254 17.9537 26.7236 18.0528L32.5 20.941L38.0707 18.1556L39.5149 12.3787ZM54.4999 29.5H54.9999H60.4999H60.9029C59.7848 28.3518 58.5362 27.3265 57.1768 26.4472C53.6433 24.1617 49.5168 22.9634 45.3088 23.0009C41.1007 23.0383 36.9962 24.3098 33.5039 26.6578C30.0117 29.0058 27.2852 32.327 25.6626 36.2098C24.04 40.0926 23.5925 44.3662 24.3756 48.5009C25.0783 52.2113 26.9821 55.822 29.4999 58.7166V48.5V48H29.9999H35.4999V45.5V45H35.9999H41.9999V41.7573L38.8397 39.5H31.4999H30.9999V38.5H31.4999H38.9999H39.1601L39.2905 38.5931L42.6601 41H48.4999V36.5V36H48.9999H54.4999V30V29.5ZM29.4999 60.2013C26.5118 57.0684 24.2023 52.96 23.393 48.687C22.5735 44.36 23.0418 39.8876 24.7399 35.8242C26.438 31.7609 29.2913 28.2852 32.946 25.8279C36.6007 23.3707 40.8961 22.0401 45.2999 22.0009C49.7036 21.9617 54.0221 23.2158 57.7199 25.6076C61.4177 27.9994 64.3323 31.4238 66.1025 35.4563C67.8726 39.4888 68.4204 43.9522 67.678 48.2931C66.9389 52.6145 63.9255 57.0359 60.9999 60.1968V63.5H61.007H61.0147H61.0226H61.0305H61.0384H61.0464H61.0545H61.0627H61.0709H61.0791H61.0874H61.0958H61.1043H61.1128H61.1213H61.13H61.1386H61.1474H61.1562H61.165H61.174H61.183H61.192H61.2011H61.2103H61.2195H61.2288H61.2381H61.2476H61.257H61.2666H61.2762H61.2858H61.2955H61.3053H61.3151H61.325H61.335H61.345H61.3551H61.3652H61.3754H61.3857H61.396H61.4064H61.4169H61.4274H61.4379H61.4486H61.4593H61.47H61.4808H61.4917H61.5026H61.5136H61.5247H61.5358H61.547H61.5583H61.5696H61.5809H61.5924H61.6038H61.6154H61.627H61.6387H61.6504H61.6622H61.6741H61.686H61.698H61.71H61.7221H61.7343H61.7465H61.7588H61.7712H61.7836H61.7961H61.8086H61.8212H61.8339H61.8466H61.8594H61.8722H61.8852H61.8981H61.9112H61.9243H61.9374H61.9506H61.9639H61.9773H61.9907H62.0042H62.0177H62.0313H62.0449H62.0587H62.0725H62.0863H62.1002H62.1142H62.1282H62.1423H62.1565H62.1707H62.185H62.1993H62.2137H62.2282H62.2427H62.2573H62.272H62.2867H62.3015H62.3163H62.3312H62.3462H62.3612H62.3763H62.3915H62.4067H62.422H62.4374H62.4528H62.4682H62.4838H62.4994H62.515H62.5308H62.5466H62.5624H62.5783H62.5943H62.6104H62.6265H62.6426H62.6589H62.6752H62.6915H62.7079H62.7244H62.741H62.7576H62.7743H62.791H62.8078H62.8247H62.8416H62.8586H62.8757H62.8928H62.91H62.9272H62.9445H62.9619H62.9793H62.9968H63.0144H63.032H63.0497H63.0675H63.0853H63.1032H63.1211H63.1391H63.1572H63.1754H63.1936H63.2118H63.2302H63.2486H63.267H63.2855H63.3041H63.3228H63.3415H63.3603H63.3791H63.398H63.417H63.436H63.4551H63.4743H63.4935H63.5128H63.5322H63.5516H63.5711H63.5906H63.6103H63.6299H63.6497H63.6695H63.6894H63.7093H63.7293H63.7494H63.7695H63.7897H63.81H63.8303H63.8507H63.8711H63.8917H63.9122H63.9329H63.9536H63.9744H63.9952H64.0161H64.0371H64.0582H64.0793H64.1004H64.1217H64.143H64.1643H64.1858H64.2072H64.2288H64.2504H64.2721H64.2939H64.3157H64.3376H64.3595H64.3815H64.4036H64.4258H64.448H64.4703H64.4926H64.515H64.5375H64.56H64.5826H64.6053H64.628H64.6508H64.6737H64.6966H64.7196H64.7427H64.7658H64.789H64.8123H64.8356H64.859H64.8824H64.906H64.9295H64.9532H64.9769H65.0007H65.0246H65.0485H65.0725H65.0965H65.1206H65.1448H65.169H65.1934H65.2177H65.2422H65.2667H65.2913H65.3159H65.3406H65.3654H65.3902H65.4151H65.4401H65.4652H65.4903H65.5154H65.5407H65.566H65.5914H65.6168H65.6423H65.6679H65.6935H65.7192H65.745H65.7708H65.7967H65.8227H65.8487H65.8748H65.901H65.9273H65.9536H65.9799H66.0064H66.0329H66.0594H66.0861H66.1128H66.1396H66.1664H66.1933H66.2203H66.2473H66.2744H66.3016H66.3288H66.3561H66.3835H66.411H66.4385H66.466H66.4937H66.5214H66.5492H66.577H66.6049H66.6329H66.661H66.6891H66.7172H66.7455H66.7738H66.8022H66.8306H66.8592H66.8877H66.9164H66.9451H66.9739H67.0028H67.0317H67.0607H67.0897H67.1189H67.1481H67.1773H67.2066H67.236H67.2655H67.295H67.3246H67.3543H67.384H67.4138H67.4437H67.4737H67.5037H67.5337H67.5639H67.5941H67.6244H67.6547H67.6851H67.7156H67.7462H67.7768H67.8075H67.8382H67.8691H67.9H67.9309H67.9619H67.993H68.0242H68.0554H68.0867H68.1181H68.1495H68.1811H68.2126H68.2443H68.276H68.3078H68.3396H68.3715H68.4035H68.4356H68.4677H68.4999C69.916 63.5 71.0333 64.0159 71.8161 64.83C72.5915 65.6364 73.0144 66.7089 73.1059 67.7954C73.2777 69.8357 72.2729 72.0841 70 72.7835V76.5V77H69.5H22H21.5V76.5V72.7835C19.2271 72.0842 18.2223 69.8358 18.3941 67.7955C18.4856 66.7089 18.9084 65.6365 19.6838 64.8301C20.4666 64.016 21.5838 63.5 22.9999 63.5H23.0321H23.0642H23.0962H23.1281H23.1599H23.1916H23.2232H23.2548H23.2862H23.3176H23.3489H23.3801H23.4111H23.4421H23.4731H23.5039H23.5346H23.5652H23.5958H23.6263H23.6566H23.6869H23.7171H23.7472H23.7772H23.8072H23.837H23.8667H23.8964H23.926H23.9555H23.9849H24.0142H24.0434H24.0725H24.1016H24.1305H24.1594H24.1882H24.2169H24.2455H24.274H24.3025H24.3308H24.3591H24.3872H24.4153H24.4433H24.4713H24.4991H24.5268H24.5545H24.5821H24.6096H24.637H24.6643H24.6915H24.7187H24.7457H24.7727H24.7996H24.8264H24.8531H24.8798H24.9063H24.9328H24.9592H24.9855H25.0117H25.0378H25.0639H25.0898H25.1157H25.1415H25.1672H25.1929H25.2184H25.2439H25.2693H25.2946H25.3198H25.3449H25.37H25.3949H25.4198H25.4446H25.4694H25.494H25.5186H25.543H25.5674H25.5918H25.616H25.6401H25.6642H25.6882H25.7121H25.736H25.7597H25.7834H25.807H25.8305H25.8539H25.8773H25.9005H25.9237H25.9468H25.9699H25.9928H26.0157H26.0385H26.0612H26.0838H26.1064H26.1288H26.1512H26.1736H26.1958H26.218H26.24H26.2621H26.284H26.3058H26.3276H26.3493H26.3709H26.3925H26.4139H26.4353H26.4566H26.4778H26.499H26.5201H26.5411H26.562H26.5828H26.6036H26.6243H26.6449H26.6655H26.6859H26.7063H26.7266H26.7469H26.767H26.7871H26.8071H26.8271H26.8469H26.8667H26.8864H26.9061H26.9256H26.9451H26.9646H26.9839H27.0032H27.0224H27.0415H27.0605H27.0795H27.0984H27.1172H27.136H27.1546H27.1732H27.1918H27.2102H27.2286H27.2469H27.2652H27.2833H27.3014H27.3195H27.3374H27.3553H27.3731H27.3908H27.4085H27.4261H27.4436H27.4611H27.4785H27.4958H27.513H27.5302H27.5473H27.5643H27.5812H27.5981H27.6149H27.6317H27.6484H27.665H27.6815H27.698H27.7144H27.7307H27.7469H27.7631H27.7792H27.7953H27.8113H27.8272H27.843H27.8588H27.8745H27.8901H27.9057H27.9212H27.9366H27.952H27.9673H27.9825H27.9977H28.0128H28.0278H28.0427H28.0576H28.0725H28.0872H28.1019H28.1165H28.1311H28.1456H28.16H28.1743H28.1886H28.2029H28.217H28.2311H28.2451H28.2591H28.273H28.2868H28.3006H28.3143H28.3279H28.3415H28.355H28.3684H28.3818H28.3951H28.4084H28.4216H28.4347H28.4477H28.4607H28.4736H28.4865H28.4993H28.512H28.5247H28.5373H28.5499H28.5624H28.5748H28.5871H28.5994H28.6117H28.6238H28.6359H28.648H28.66H28.6719H28.6837H28.6955H28.7073H28.7189H28.7306H28.7421H28.7536H28.765H28.7764H28.7877H28.7989H28.8101H28.8213H28.8323H28.8433H28.8543H28.8651H28.876H28.8867H28.8974H28.9081H28.9187H28.9292H28.9396H28.9501H28.9604H28.9707H28.9809H28.9911H29.0012H29.0112H29.0212H29.0312H29.0411H29.0509H29.0606H29.0703H29.08H29.0896H29.0991H29.1086H29.118H29.1273H29.1367H29.1459H29.1551H29.1642H29.1733H29.1823H29.1913H29.2002H29.209H29.2178H29.2265H29.2352H29.2438H29.2524H29.2609H29.2694H29.2778H29.2861H29.2944H29.3027H29.3108H29.319H29.327H29.3351H29.343H29.3509H29.3588H29.3666H29.3743H29.382H29.3897H29.3973H29.4048H29.4123H29.4197H29.4271H29.4344H29.4416H29.4489H29.456H29.4631H29.4702H29.4772H29.4841H29.491H29.4979H29.4999V60.2013ZM60.9999 58.6988C63.6129 55.6887 66.0603 51.8196 66.6923 48.1245C67.4017 43.9765 66.8783 39.7115 65.1868 35.8582C64.1649 33.5303 62.7439 31.4145 60.9999 29.6002V30V58.6988ZM54.4999 37H49.4999V41.5V63.5H54.4999V37ZM55.4999 63.5H59.9999V30.5H55.4999V36.5V63.5ZM48.4999 63.5V42H42.9999V45.5V63.5H48.4999ZM41.9999 63.5V46H36.4999V48.5V63.5H41.9999ZM35.4999 63.5V49H30.4999V63.5H35.4999ZM22.5 72.9778V76H69V72.9778C68.8374 72.9925 68.6707 73 68.4999 73H68.4673H68.4341H68.4002H68.3657H68.3305H68.2947H68.2582H68.2211H68.1833H68.1449H68.1058H68.0661H68.0258H67.9849H67.9433H67.9011H67.8582H67.8148H67.7707H67.7261H67.6808H67.6349H67.5884H67.5413H67.4935H67.4452H67.3963H67.3468H67.2967H67.2461H67.1948H67.1429H67.0905H67.0375H66.9839H66.9298H66.875H66.8197H66.7639H66.7075H66.6505H66.5929H66.5348H66.4762H66.417H66.3573H66.297H66.2361H66.1748H66.1129H66.0504H65.9874H65.9239H65.8599H65.7954H65.7303H65.6647H65.5986H65.532H65.4648H65.3972H65.3291H65.2604H65.1913H65.1216H65.0515H64.9808H64.9097H64.8381H64.766H64.6934H64.6204H64.5468H64.4728H64.3984H64.3234H64.248H64.1721H64.0958H64.019H63.9417H63.864H63.7858H63.7072H63.6282H63.5487H63.4687H63.3883H63.3075H63.2263H63.1446H63.0625H62.9799H62.897H62.8136H62.7298H62.6456H62.561H62.476H62.3905H62.3047H62.2185H62.1318H62.0448H61.9573H61.8695H61.7813H61.6927H61.6037H61.5144H61.4246H61.3345H61.244H61.1531H61.0619H60.9703H60.8784H60.786H60.6934H60.6003H60.5069H60.4132H60.3191H60.2247H60.1299H60.0348H59.9394H59.8436H59.7475H59.651H59.5543H59.4572H59.3598H59.262H59.164H59.0656H58.9669H58.8679H58.7687H58.6691H58.5692H58.469H58.3685H58.2677H58.1666H58.0653H57.9636H57.8617H57.7595H57.657H57.5543H57.4512H57.3479H57.2444H57.1405H57.0364H56.9321H56.8275H56.7226H56.6175H56.5121H56.4065H56.3007H56.1946H56.0882H55.9817H55.8749H55.7678H55.6606H55.5531H55.4454H55.3374H55.2293H55.1209H55.0124H54.9036H54.7946H54.6854H54.576H54.4664H54.3566H54.2466H54.1364H54.026H53.9155H53.8047H53.6938H53.5827H53.4714H53.36H53.2483H53.1365H53.0246H52.9125H52.8002H52.6877H52.5751H52.4624H52.3495H52.2364H52.1232H52.0099H51.8964H51.7828H51.6691H51.5552H51.4412H51.327H51.2128H51.0984H50.9839H50.8693H50.7545H50.6397H50.5247H50.4097H50.2945H50.1792H50.0639H49.9484H49.8328H49.7172H49.6015H49.4857H49.3698H49.2538H49.1377H49.0216H48.9054H48.7891H48.6727H48.5563H48.4399H48.3233H48.2067H48.0901H47.9734H47.8567H47.7399H47.623H47.5062H47.3893H47.2723H47.1553H47.0383H46.9213H46.8042H46.6871H46.57H46.4528H46.3357H46.2185H46.1014H45.9842H45.867H45.7498H45.6326H45.5154H45.3983H45.2811H45.1639H45.0468H44.9296H44.8125H44.6954H44.5784H44.4613H44.3443H44.2273H44.1104H43.9935H43.8766H43.7597H43.643H43.5262H43.4095H43.2929H43.1763H43.0598H42.9433H42.8269H42.7105H42.5943H42.478H42.3619H42.2459H42.1299H42.014H41.8982H41.7824H41.6668H41.5512H41.4358H41.3204H41.2051H41.09H40.9749H40.86H40.7451H40.6304H40.5158H40.4012H40.2869H40.1726H40.0585H39.9445H39.8306H39.7168H39.6032H39.4897H39.3764H39.2632H39.1502H39.0373H38.9245H38.8119H38.6995H38.5872H38.4751H38.3631H38.2513H38.1397H38.0282H37.9169H37.8058H37.6949H37.5842H37.4736H37.3632H37.2531H37.1431H37.0333H36.9237H36.8143H36.7051H36.5961H36.4873H36.3787H36.2703H36.1622H36.0543H35.9466H35.8391H35.7318H35.6248H35.518H35.4114H35.3051H35.199H35.0931H34.9875H34.8821H34.777H34.6722H34.5676H34.4632H34.3591H34.2553H34.1517H34.0484H33.9454H33.8426H33.7401H33.6379H33.536H33.4344H33.333H33.2319H33.1312H33.0307H32.9305H32.8306H32.731H32.6317H32.5327H32.4341H32.3357H32.2376H32.1399H32.0425H31.9454H31.8486H31.7522H31.6561H31.5603H31.4649H31.3697H31.275H31.1805H31.0865H30.9927H30.8993H30.8063H30.7136H30.6213H30.5294H30.4378H30.3465H30.2557H30.1652H30.0751H29.9853H29.896H29.807H29.7184H29.6302H29.5423H29.4549H29.3679H29.2812H29.195H29.1091H29.0237H28.9387H28.8541H28.7699H28.6861H28.6027H28.5197H28.4372H28.3551H28.2734H28.1922H28.1114H28.031H27.951H27.8715H27.7925H27.7139H27.6357H27.558H27.4807H27.4039H27.3276H27.2517H27.1763H27.1014H27.0269H26.9529H26.8793H26.8063H26.7337H26.6616H26.59H26.5189H26.4482H26.3781H26.3085H26.2393H26.1707H26.1025H26.0349H25.9677H25.9011H25.835H25.7694H25.7044H25.6398H25.5758H25.5123H25.4493H25.3869H25.325H25.2636H25.2028H25.1425H25.0827H25.0235H24.9649H24.9068H24.8493H24.7923H24.7359H24.68H24.6247H24.57H24.5158H24.4622H24.4092H24.3568H24.305H24.2537H24.203H24.1529H24.1034H24.0545H24.0062H23.9585H23.9114H23.8649H23.819H23.7737H23.729H23.685H23.6415H23.5987H23.5565H23.5149H23.474H23.4337H23.394H23.3549H23.3165H23.2787H23.2416H23.2051H23.1693H23.1341H23.0996H23.0657H23.0325H22.9999C22.8292 73 22.6625 72.9925 22.5 72.9778ZM30.9999 35H31.4999H38.9999H39.4999V36H38.9999H31.4999H30.9999V35ZM19.3906 67.8794C19.2387 69.6825 20.1795 71.4943 22.1052 71.9087C22.3791 71.9677 22.677 72 22.9999 72H23.0325H23.0657H23.0996H23.1341H23.1693H23.2051H23.2416H23.2787H23.3165H23.3549H23.394H23.4337H23.474H23.5149H23.5565H23.5987H23.6415H23.685H23.729H23.7737H23.819H23.8649H23.9114H23.9585H24.0062H24.0545H24.1034H24.1529H24.203H24.2537H24.305H24.3568H24.4092H24.4622H24.5158H24.57H24.6247H24.68H24.7359H24.7923H24.8493H24.9068H24.9649H25.0235H25.0827H25.1425H25.2028H25.2636H25.325H25.3869H25.4493H25.5123H25.5758H25.6398H25.7044H25.7694H25.835H25.9011H25.9677H26.0349H26.1025H26.1707H26.2393H26.3085H26.3781H26.4482H26.5189H26.59H26.6616H26.7337H26.8063H26.8793H26.9529H27.0269H27.1014H27.1763H27.2517H27.3276H27.4039H27.4807H27.558H27.6357H27.7139H27.7925H27.8715H27.951H28.031H28.1114H28.1922H28.2734H28.3551H28.4372H28.5197H28.6027H28.6861H28.7699H28.8541H28.9387H29.0237H29.1091H29.195H29.2812H29.3679H29.4549H29.5423H29.6302H29.7184H29.807H29.896H29.9853H30.0751H30.1652H30.2557H30.3465H30.4378H30.5294H30.6213H30.7136H30.8063H30.8993H30.9927H31.0865H31.1805H31.275H31.3697H31.4649H31.5603H31.6561H31.7522H31.8486H31.9454H32.0425H32.1399H32.2376H32.3357H32.4341H32.5327H32.6317H32.731H32.8306H32.9305H33.0307H33.1312H33.2319H33.333H33.4344H33.536H33.6379H33.7401H33.8426H33.9454H34.0484H34.1517H34.2553H34.3591H34.4632H34.5676H34.6722H34.777H34.8821H34.9875H35.0931H35.199H35.3051H35.4114H35.518H35.6248H35.7318H35.8391H35.9466H36.0543H36.1622H36.2703H36.3787H36.4873H36.5961H36.7051H36.8143H36.9237H37.0333H37.1431H37.2531H37.3632H37.4736H37.5842H37.6949H37.8058H37.9169H38.0282H38.1397H38.2513H38.3631H38.4751H38.5872H38.6995H38.8119H38.9245H39.0373H39.1502H39.2632H39.3764H39.4897H39.6032H39.7168H39.8306H39.9445H40.0585H40.1726H40.2869H40.4012H40.5158H40.6304H40.7451H40.86H40.9749H41.09H41.2051H41.3204H41.4358H41.5512H41.6668H41.7824H41.8982H42.014H42.1299H42.2459H42.3619H42.478H42.5943H42.7105H42.8269H42.9433H43.0598H43.1763H43.2929H43.4095H43.5262H43.643H43.7597H43.8766H43.9935H44.1104H44.2273H44.3443H44.4613H44.5784H44.6954H44.8125H44.9296H45.0468H45.1639H45.2811H45.3983H45.5154H45.6326H45.7498H45.867H45.9842H46.1014H46.2185H46.3357H46.4528H46.57H46.6871H46.8042H46.9213H47.0383H47.1553H47.2723H47.3893H47.5062H47.623H47.7399H47.8567H47.9734H48.0901H48.2067H48.3233H48.4399H48.5563H48.6727H48.7891H48.9054H49.0216H49.1377H49.2538H49.3698H49.4857H49.6015H49.7172H49.8328H49.9484H50.0639H50.1792H50.2945H50.4097H50.5247H50.6397H50.7545H50.8693H50.9839H51.0984H51.2128H51.327H51.4412H51.5552H51.6691H51.7828H51.8964H52.0099H52.1232H52.2364H52.3495H52.4624H52.5751H52.6877H52.8002H52.9125H53.0246H53.1365H53.2483H53.36H53.4714H53.5827H53.6938H53.8047H53.9155H54.026H54.1364H54.2466H54.3566H54.4664H54.576H54.6854H54.7946H54.9036H55.0124H55.1209H55.2293H55.3374H55.4454H55.5531H55.6606H55.7678H55.8749H55.9817H56.0882H56.1946H56.3007H56.4065H56.5121H56.6175H56.7226H56.8275H56.9321H57.0364H57.1405H57.2444H57.3479H57.4512H57.5543H57.657H57.7595H57.8617H57.9636H58.0653H58.1666H58.2677H58.3685H58.469H58.5692H58.6691H58.7687H58.8679H58.9669H59.0656H59.164H59.262H59.3598H59.4572H59.5543H59.651H59.7475H59.8436H59.9394H60.0348H60.1299H60.2247H60.3191H60.4132H60.5069H60.6003H60.6934H60.786H60.8784H60.9703H61.0619H61.1531H61.244H61.3345H61.4246H61.5144H61.6037H61.6927H61.7813H61.8695H61.9573H62.0448H62.1318H62.2185H62.3047H62.3905H62.476H62.561H62.6456H62.7298H62.8136H62.897H62.9799H63.0625H63.1446H63.2263H63.3075H63.3883H63.4687H63.5487H63.6282H63.7072H63.7858H63.864H63.9417H64.019H64.0958H64.1721H64.248H64.3234H64.3984H64.4728H64.5468H64.6204H64.6934H64.766H64.8381H64.9097H64.9808H65.0515H65.1216H65.1913H65.2604H65.3291H65.3972H65.4648H65.532H65.5986H65.6647H65.7303H65.7954H65.8599H65.9239H65.9874H66.0504H66.1129H66.1748H66.2361H66.297H66.3573H66.417H66.4762H66.5348H66.5929H66.6505H66.7075H66.7639H66.8197H66.875H66.9298H66.9839H67.0375H67.0905H67.1429H67.1948H67.2461H67.2967H67.3468H67.3963H67.4452H67.4935H67.5413H67.5884H67.6349H67.6808H67.7261H67.7707H67.8148H67.8582H67.9011H67.9433H67.9849H68.0258H68.0661H68.1058H68.1449H68.1833H68.2211H68.2582H68.2947H68.3305H68.3657H68.4002H68.4341H68.4673H68.4999C68.8229 72 69.1209 71.9677 69.3948 71.9087C71.3206 71.4942 72.2613 69.6824 72.1094 67.8794C72.0342 66.987 71.6892 66.1408 71.0953 65.5232C70.5089 64.9133 69.6556 64.5 68.4999 64.5H68.4677H68.4356H68.4035H68.3715H68.3396H68.3078H68.276H68.2443H68.2126H68.1811H68.1495H68.1181H68.0867H68.0554H68.0242H67.993H67.9619H67.9309H67.9H67.8691H67.8382H67.8075H67.7768H67.7462H67.7156H67.6851H67.6547H67.6244H67.5941H67.5639H67.5337H67.5037H67.4737H67.4437H67.4138H67.384H67.3543H67.3246H67.295H67.2655H67.236H67.2066H67.1773H67.1481H67.1189H67.0897H67.0607H67.0317H67.0028H66.9739H66.9451H66.9164H66.8877H66.8592H66.8306H66.8022H66.7738H66.7455H66.7172H66.6891H66.661H66.6329H66.6049H66.577H66.5492H66.5214H66.4937H66.466H66.4385H66.411H66.3835H66.3561H66.3288H66.3016H66.2744H66.2473H66.2203H66.1933H66.1664H66.1396H66.1128H66.0861H66.0594H66.0329H66.0064H65.9799H65.9536H65.9273H65.901H65.8748H65.8487H65.8227H65.7967H65.7708H65.745H65.7192H65.6935H65.6679H65.6423H65.6168H65.5914H65.566H65.5407H65.5154H65.4903H65.4652H65.4401H65.4151H65.3902H65.3654H65.3406H65.3159H65.2913H65.2667H65.2422H65.2177H65.1934H65.169H65.1448H65.1206H65.0965H65.0725H65.0485H65.0246H65.0007H64.9769H64.9532H64.9295H64.906H64.8824H64.859H64.8356H64.8123H64.789H64.7658H64.7427H64.7196H64.6966H64.6737H64.6508H64.628H64.6053H64.5826H64.56H64.5375H64.515H64.4926H64.4703H64.448H64.4258H64.4036H64.3815H64.3595H64.3376H64.3157H64.2939H64.2721H64.2504H64.2288H64.2072H64.1858H64.1643H64.143H64.1217H64.1004H64.0793H64.0582H64.0371H64.0161H63.9952H63.9744H63.9536H63.9329H63.9122H63.8917H63.8711H63.8507H63.8303H63.81H63.7897H63.7695H63.7494H63.7293H63.7093H63.6894H63.6695H63.6497H63.6299H63.6103H63.5906H63.5711H63.5516H63.5322H63.5128H63.4935H63.4743H63.4551H63.436H63.417H63.398H63.3791H63.3603H63.3415H63.3228H63.3041H63.2855H63.267H63.2486H63.2302H63.2118H63.1936H63.1754H63.1572H63.1391H63.1211H63.1032H63.0853H63.0675H63.0497H63.032H63.0144H62.9968H62.9793H62.9619H62.9445H62.9272H62.91H62.8928H62.8757H62.8586H62.8416H62.8247H62.8078H62.791H62.7743H62.7576H62.741H62.7244H62.7079H62.6915H62.6752H62.6589H62.6426H62.6265H62.6104H62.5943H62.5783H62.5624H62.5466H62.5308H62.515H62.4994H62.4838H62.4682H62.4528H62.4374H62.422H62.4067H62.3915H62.3763H62.3612H62.3462H62.3312H62.3163H62.3015H62.2867H62.272H62.2573H62.2427H62.2282H62.2137H62.1993H62.185H62.1707H62.1565H62.1423H62.1282H62.1142H62.1002H62.0863H62.0725H62.0587H62.0449H62.0313H62.0177H62.0042H61.9907H61.9773H61.9639H61.9506H61.9374H61.9243H61.9112H61.8981H61.8852H61.8722H61.8594H61.8466H61.8339H61.8212H61.8086H61.7961H61.7836H61.7712H61.7588H61.7465H61.7343H61.7221H61.71H61.698H61.686H61.6741H61.6622H61.6504H61.6387H61.627H61.6154H61.6038H61.5924H61.5809H61.5696H61.5583H61.547H61.5358H61.5247H61.5136H61.5026H61.4917H61.4808H61.47H61.4593H61.4486H61.4379H61.4274H61.4169H61.4064H61.396H61.3857H61.3754H61.3652H61.3551H61.345H61.335H61.325H61.3151H61.3053H61.2955H61.2858H61.2762H61.2666H61.257H61.2476H61.2381H61.2288H61.2195H61.2103H61.2011H61.192H61.183H61.174H61.165H61.1562H61.1474H61.1386H61.13H61.1213H61.1128H61.1043H61.0958H61.0874H61.0791H61.0709H61.0627H61.0545H61.0464H61.0384H61.0305H61.0226H61.0147H61.007H60.9992H60.9916H60.984H60.9764H60.969H60.9616H60.9542H60.9469H60.9397H60.9325H60.9254H60.9183H60.9113H60.9044H60.8975H60.8907H60.8839H60.8772H60.8706H60.864H60.8575H60.851H60.8446H60.8383H60.832H60.8258H60.8196H60.8135H60.8075H60.8015H60.7956H60.7897H60.7839H60.7782H60.7725H60.7669H60.7613H60.7558H60.7503H60.7449H60.7396H60.7343H60.7291H60.724H60.7189H60.7139H60.7089H60.704H60.6991H60.6943H60.6896H60.6849H60.6803H60.6757H60.6712H60.6668H60.6624H60.6581H60.6538H60.6496H60.6455H60.6414H60.6373H60.6334H60.6294H60.6256H60.6218H60.6181H60.6144H60.6108H60.6072H60.6037H60.6003H60.5969H60.5935H60.5903H60.5871H60.5839H60.5808H60.5778H60.5748H60.5719H60.569H60.5662H60.5635H60.5608H60.5582H60.5556H60.5531H60.5506H60.5482H60.5459H60.5436H60.5414H60.5393H60.5371H60.5351H60.5331H60.5312H60.5293H60.5275H60.5257H60.524H60.5224H60.5208H60.5193H60.5178H60.5164H60.5151H60.5138H60.5125H60.5114H60.5103H60.5092H60.5082H60.5072H60.5063H60.5055H60.5047H60.504H60.5034H60.5028H60.5022H60.5017H60.5013H60.5009H60.5006H60.5004H60.5002H60.5H60.4999H54.9999H48.9999H42.4999H35.9999H29.9999H29.9998H29.9997H29.9996H29.9995H29.9993H29.9991H29.9988H29.9985H29.9982H29.9978H29.9974H29.997H29.9965H29.996H29.9954H29.9949H29.9942H29.9936H29.9929H29.9922H29.9914H29.9906H29.9898H29.9889H29.988H29.987H29.986H29.985H29.9839H29.9828H29.9817H29.9805H29.9793H29.9781H29.9768H29.9755H29.9741H29.9727H29.9712H29.9698H29.9682H29.9667H29.9651H29.9634H29.9618H29.96H29.9583H29.9565H29.9547H29.9528H29.9509H29.9489H29.9469H29.9449H29.9428H29.9407H29.9385H29.9363H29.9341H29.9318H29.9295H29.9271H29.9247H29.9223H29.9198H29.9172H29.9147H29.912H29.9094H29.9067H29.904H29.9012H29.8983H29.8955H29.8926H29.8896H29.8866H29.8836H29.8805H29.8774H29.8742H29.871H29.8677H29.8644H29.8611H29.8577H29.8543H29.8508H29.8473H29.8437H29.8401H29.8364H29.8327H29.829H29.8252H29.8214H29.8175H29.8136H29.8096H29.8056H29.8015H29.7974H29.7933H29.7891H29.7848H29.7805H29.7762H29.7718H29.7674H29.7629H29.7584H29.7538H29.7492H29.7445H29.7398H29.7351H29.7303H29.7254H29.7205H29.7156H29.7106H29.7055H29.7004H29.6953H29.6901H29.6849H29.6796H29.6742H29.6689H29.6634H29.6579H29.6524H29.6468H29.6412H29.6355H29.6298H29.624H29.6182H29.6123H29.6064H29.6004H29.5944H29.5883H29.5822H29.576H29.5698H29.5635H29.5572H29.5508H29.5443H29.5379H29.5313H29.5247H29.5181H29.5114H29.5047H29.4979H29.491H29.4841H29.4772H29.4702H29.4631H29.456H29.4489H29.4416H29.4344H29.4271H29.4197H29.4123H29.4048H29.3973H29.3897H29.382H29.3743H29.3666H29.3588H29.3509H29.343H29.3351H29.327H29.319H29.3108H29.3027H29.2944H29.2861H29.2778H29.2694H29.2609H29.2524H29.2438H29.2352H29.2265H29.2178H29.209H29.2002H29.1913H29.1823H29.1733H29.1642H29.1551H29.1459H29.1367H29.1273H29.118H29.1086H29.0991H29.0896H29.08H29.0703H29.0606H29.0509H29.0411H29.0312H29.0212H29.0112H29.0012H28.9911H28.9809H28.9707H28.9604H28.9501H28.9396H28.9292H28.9187H28.9081H28.8974H28.8867H28.876H28.8651H28.8543H28.8433H28.8323H28.8213H28.8101H28.7989H28.7877H28.7764H28.765H28.7536H28.7421H28.7306H28.7189H28.7073H28.6955H28.6837H28.6719H28.66H28.648H28.6359H28.6238H28.6117H28.5994H28.5871H28.5748H28.5624H28.5499H28.5373H28.5247H28.512H28.4993H28.4865H28.4736H28.4607H28.4477H28.4347H28.4216H28.4084H28.3951H28.3818H28.3684H28.355H28.3415H28.3279H28.3143H28.3006H28.2868H28.273H28.2591H28.2451H28.2311H28.217H28.2029H28.1886H28.1743H28.16H28.1456H28.1311H28.1165H28.1019H28.0872H28.0725H28.0576H28.0427H28.0278H28.0128H27.9977H27.9825H27.9673H27.952H27.9366H27.9212H27.9057H27.8901H27.8745H27.8588H27.843H27.8272H27.8113H27.7953H27.7792H27.7631H27.7469H27.7307H27.7144H27.698H27.6815H27.665H27.6484H27.6317H27.6149H27.5981H27.5812H27.5643H27.5473H27.5302H27.513H27.4958H27.4785H27.4611H27.4436H27.4261H27.4085H27.3908H27.3731H27.3553H27.3374H27.3195H27.3014H27.2833H27.2652H27.2469H27.2286H27.2102H27.1918H27.1732H27.1546H27.136H27.1172H27.0984H27.0795H27.0605H27.0415H27.0224H27.0032H26.9839H26.9646H26.9451H26.9256H26.9061H26.8864H26.8667H26.8469H26.8271H26.8071H26.7871H26.767H26.7469H26.7266H26.7063H26.6859H26.6655H26.6449H26.6243H26.6036H26.5828H26.562H26.5411H26.5201H26.499H26.4778H26.4566H26.4353H26.4139H26.3925H26.3709H26.3493H26.3276H26.3058H26.284H26.2621H26.24H26.218H26.1958H26.1736H26.1512H26.1288H26.1064H26.0838H26.0612H26.0385H26.0157H25.9928H25.9699H25.9468H25.9237H25.9005H25.8773H25.8539H25.8305H25.807H25.7834H25.7597H25.736H25.7121H25.6882H25.6642H25.6401H25.616H25.5918H25.5674H25.543H25.5186H25.494H25.4694H25.4446H25.4198H25.3949H25.37H25.3449H25.3198H25.2946H25.2693H25.2439H25.2184H25.1929H25.1672H25.1415H25.1157H25.0898H25.0639H25.0378H25.0117H24.9855H24.9592H24.9328H24.9063H24.8798H24.8531H24.8264H24.7996H24.7727H24.7457H24.7187H24.6915H24.6643H24.637H24.6096H24.5821H24.5545H24.5268H24.4991H24.4713H24.4433H24.4153H24.3872H24.3591H24.3308H24.3025H24.274H24.2455H24.2169H24.1882H24.1594H24.1305H24.1016H24.0725H24.0434H24.0142H23.9849H23.9555H23.926H23.8964H23.8667H23.837H23.8072H23.7772H23.7472H23.7171H23.6869H23.6566H23.6263H23.5958H23.5652H23.5346H23.5039H23.4731H23.4421H23.4111H23.3801H23.3489H23.3176H23.2862H23.2548H23.2232H23.1916H23.1599H23.1281H23.0962H23.0642H23.0321H22.9999C21.8443 64.5 20.991 64.9133 20.4046 65.5232C19.8108 66.1408 19.4657 66.9871 19.3906 67.8794Z" fill="black"/>
</svg>
