<svg width="36" height="36" viewBox="0 0 36 36" fill="none" xmlns="http://www.w3.org/2000/svg">
<path d="M17.9999 10.7897C14.0097 10.7897 10.7894 14.01 10.7894 18.0003C10.7894 21.9905 14.0097 25.2108 17.9999 25.2108C21.9902 25.2108 25.2105 21.9905 25.2105 18.0003C25.2105 14.01 21.9902 10.7897 17.9999 10.7897ZM17.9999 22.6866C15.4195 22.6866 13.3136 20.5807 13.3136 18.0003C13.3136 15.4198 15.4195 13.3139 17.9999 13.3139C20.5804 13.3139 22.6863 15.4198 22.6863 18.0003C22.6863 20.5807 20.5804 22.6866 17.9999 22.6866ZM25.5058 8.81394C24.5741 8.81394 23.8218 9.56628 23.8218 10.4979C23.8218 11.4296 24.5741 12.1819 25.5058 12.1819C26.4374 12.1819 27.1898 11.4331 27.1898 10.4979C27.19 10.2767 27.1467 10.0576 27.0621 9.85316C26.9776 9.64872 26.8536 9.46297 26.6972 9.30654C26.5407 9.15012 26.355 9.02609 26.1505 8.94156C25.9461 8.85703 25.727 8.81366 25.5058 8.81394ZM32.0554 18.0003C32.0554 16.0596 32.073 14.1366 31.964 12.1995C31.855 9.94948 31.3417 7.95261 29.6964 6.3073C28.0476 4.65847 26.0542 4.1487 23.8042 4.03972C21.8636 3.93073 19.9405 3.94831 18.0034 3.94831C16.0628 3.94831 14.1398 3.93073 12.2027 4.03972C9.95266 4.1487 7.95578 4.66198 6.31047 6.3073C4.66164 7.95612 4.15188 9.94948 4.04289 12.1995C3.93391 14.1401 3.95149 16.0632 3.95149 18.0003C3.95149 19.9374 3.93391 21.8639 4.04289 23.801C4.15188 26.051 4.66516 28.0479 6.31047 29.6932C7.9593 31.3421 9.95266 31.8518 12.2027 31.9608C14.1433 32.0698 16.0663 32.0522 18.0034 32.0522C19.9441 32.0522 21.8671 32.0698 23.8042 31.9608C26.0542 31.8518 28.0511 31.3385 29.6964 29.6932C31.3452 28.0444 31.855 26.051 31.964 23.801C32.0765 21.8639 32.0554 19.9409 32.0554 18.0003ZM28.9616 26.2901C28.705 26.93 28.3956 27.4081 27.8999 27.9003C27.4042 28.396 26.9296 28.7053 26.2898 28.962C24.4405 29.6967 20.0495 29.5315 17.9999 29.5315C15.9503 29.5315 11.5558 29.6967 9.70656 28.9655C9.06672 28.7089 8.58859 28.3995 8.09641 27.9038C7.6007 27.4081 7.29133 26.9335 7.03469 26.2936C6.30344 24.4409 6.46867 20.0499 6.46867 18.0003C6.46867 15.9507 6.30344 11.5561 7.03469 9.7069C7.29133 9.06706 7.6007 8.58894 8.09641 8.09675C8.59211 7.60456 9.06672 7.29167 9.70656 7.03503C11.5558 6.30378 15.9503 6.46901 17.9999 6.46901C20.0495 6.46901 24.4441 6.30378 26.2933 7.03503C26.9331 7.29167 27.4113 7.60105 27.9034 8.09675C28.3991 8.59245 28.7085 9.06706 28.9652 9.7069C29.6964 11.5561 29.5312 15.9507 29.5312 18.0003C29.5312 20.0499 29.6964 24.4409 28.9616 26.2901Z" fill="white"/>
</svg>
