<svg width="512" height="512" viewBox="0 0 512 512" fill="none" xmlns="http://www.w3.org/2000/svg">
<path d="M472 168H40C33.6348 168 27.5303 165.471 23.0294 160.971C18.5286 156.47 16 150.365 16 144C16 137.635 18.5286 131.53 23.0294 127.029C27.5303 122.529 33.6348 120 40 120H472C478.365 120 484.47 122.529 488.971 127.029C493.471 131.53 496 137.635 496 144C496 150.365 493.471 156.47 488.971 160.971C484.47 165.471 478.365 168 472 168ZM392 280H120C113.635 280 107.53 277.471 103.029 272.971C98.5286 268.47 96 262.365 96 256C96 249.635 98.5286 243.53 103.029 239.029C107.53 234.529 113.635 232 120 232H392C398.365 232 404.47 234.529 408.971 239.029C413.471 243.53 416 249.635 416 256C416 262.365 413.471 268.47 408.971 272.971C404.47 277.471 398.365 280 392 280ZM296 392H216C209.635 392 203.53 389.471 199.029 384.971C194.529 380.47 192 374.365 192 368C192 361.635 194.529 355.53 199.029 351.029C203.53 346.529 209.635 344 216 344H296C302.365 344 308.47 346.529 312.971 351.029C317.471 355.53 320 361.635 320 368C320 374.365 317.471 380.47 312.971 384.971C308.47 389.471 302.365 392 296 392Z" fill="black"/>
</svg>
