<svg width="205" height="41" viewBox="0 0 205 41" fill="none" xmlns="http://www.w3.org/2000/svg">
<path fill-rule="evenodd" clip-rule="evenodd" d="M47.9023 20.6642V35.2307H54.4926H61.0828V20.6642V6.09766H54.4926H47.9023V20.6642ZM171.834 10.4641C171.011 11.017 170.267 11.5779 170.267 12.6598C170.267 13.7416 171.011 14.3237 171.834 14.8767C174.988 16.997 180.664 14.9268 179.91 11.931C179.375 9.80821 174.206 8.86921 171.834 10.4641ZM139.777 11.4269C139.777 11.79 154.393 35.2184 154.619 35.2315C154.72 35.2372 155.557 33.5744 157.59 29.8127C159.623 26.051 166.476 13.2832 167.595 11.4269C166.883 11.4269 166.705 11.4269 165.814 11.4269C165.636 11.7822 165.427 12.1374 165.427 12.1374C165.427 12.1374 164.348 14.0499 163.571 15.6131C162.628 17.3753 161.451 19.4898 160.39 21.3694L158.741 24.4238L154.934 17.9932L151.031 11.4464L144.886 11.4365C141.506 11.4311 139.956 11.4269 139.777 11.4269ZM180.776 11.4269C180.776 11.6045 180.776 12.1374 180.776 12.4927H187.188V23.8617V35.2307H192.709H198.231V23.8617V12.4927H201.645C204.217 12.4927 204.554 12.4927 204.999 12.4927C204.999 12.1374 204.999 11.9598 204.999 11.4269C198.438 11.3754 181.132 11.4269 180.776 11.4269ZM87.9781 16.7561C87.9781 17.289 87.9781 17.2677 87.9781 18.1772C87.0875 18.1772 86.431 18.1772 85.3064 18.1772C85.3064 18.5325 85.3064 19.226 85.3064 19.5983C85.8407 19.5983 85.6844 19.5983 86.5707 19.5983H87.9781V26.1605C87.9781 32.2108 87.9176 32.882 89.92 34.4092C91.6868 35.7014 94.8671 35.349 96.7517 34.7616C98.4402 33.9967 100.446 32.2855 100.268 31.6779C99.9118 31.2197 99.5556 31.1344 98.2297 32.4773C95.9933 34.1543 95.9933 33.8096 95.9933 32.4773V19.5983H97.5963C98.8431 19.5983 99.0212 19.5983 99.3774 19.5983C99.3774 19.1802 99.3774 18.5325 99.3774 18.1772H95.9933V15.8679C95.9933 13.4431 95.9933 13.7362 95.9933 13.2033C93.9724 13.9583 90.2045 15.9362 87.9781 16.7561ZM170.445 25.8158V35.2307H175.076H179.707V25.8158V16.4008H175.076H170.445V25.8158ZM63.5764 26.704V35.2307H67.6731H71.7697V28.512V21.7936L73.6385 20.8649C76.4377 19.4736 76.3323 20.6993 76.3323 28.2139V35.2307H80.4261H84.3081V28.0741C84.3081 20.4301 83.7495 19.5983 81.882 18.7148C79.9619 17.8063 76.1196 18.1122 73.6399 19.3713L71.7697 20.321V19.2491V18.1772H67.6731H63.5764V26.704ZM106.858 18.8405C102.576 20.7875 100.49 25.0839 101.713 29.4379C102.365 31.7642 104.365 34.6978 107.393 35.2385C109.604 35.8272 113.288 35.5096 115.131 34.5713C117.185 33.525 119.148 31.7461 119.148 30.9304C119.148 29.7804 118.183 30.0633 117.338 30.9406C115.863 32.4718 113.371 33.6294 111.59 33.807C110.411 33.9246 108.818 34.6027 108.871 31.4183L108.818 27.4145H114.126H119.504V26.1597C119.504 23.3704 117.443 20.2872 114.737 19.0306C112.44 17.9641 108.97 17.8802 106.858 18.8405ZM122.354 26.704V35.2307H126.54H130.439V29.5927V23.464L131.49 22.3795C132.97 20.8283 133.704 20.5139 135.884 20.4993C137.473 20.489 137.859 20.3675 137.962 19.8478C138.155 18.8611 137.353 18.1772 136.002 18.1772C134.6 18.1772 133.786 18.5474 131.841 20.068L130.439 21.1345V19.5876V18.1772H126.66H122.354V26.704ZM112.024 19.5983C112.736 20.0954 112.736 20.6518 112.736 23.3491V26.3487H110.777H108.818V23.5064C108.818 21.1378 108.936 20.3682 109.53 19.776C110.421 19.0654 110.955 19.0306 112.024 19.5983Z" fill="#141414"/>
<path d="M7.66406 8.15088V32.9938H20.1187L13.8914 20.5723L7.66406 8.15088Z" fill="#EF6A37"/>
<path d="M32.5732 32.9938V8.15088L26.3459 20.5723L20.1187 32.9938H32.5732Z" fill="#EF6A37"/>
<path d="M7.66406 8.15088V32.9938H20.1187M7.66406 8.15088L13.8914 20.5723M7.66406 8.15088H20.1187M32.5732 8.15088V32.9938H20.1187M32.5732 8.15088H20.1187M32.5732 8.15088L26.3459 20.5723M20.1187 32.9938L13.8914 20.5723M20.1187 32.9938L26.3459 20.5723M13.8914 20.5723L20.1187 8.15088M20.1187 8.15088L26.3459 20.5723" stroke="#EF6A37" stroke-width="1.9215"/>
<path d="M39.2772 20.5728C39.2772 31.1216 30.7022 39.6774 20.119 39.6774C9.53576 39.6774 0.960751 31.1216 0.960751 20.5728C0.960751 10.0239 9.53576 1.46807 20.119 1.46807C30.7022 1.46807 39.2772 10.0239 39.2772 20.5728Z" stroke="#EF6A37" stroke-width="1.9215"/>
</svg>
