<svg width="222" height="44" viewBox="0 0 222 44" fill="none" xmlns="http://www.w3.org/2000/svg">
<path fill-rule="evenodd" clip-rule="evenodd" d="M51 21.8364V37.6729H58.1457H65.2914V21.8364V6H58.1457H51V21.8364ZM185.377 10.7471C184.485 11.3482 183.678 11.958 183.678 13.1342C183.678 14.3104 184.485 14.9432 185.377 15.5444C188.798 17.8495 194.951 15.5988 194.134 12.3419C193.555 10.034 187.95 9.01317 185.377 10.7471ZM150.619 11.7938C150.619 12.1886 166.466 37.6594 166.711 37.6737C166.821 37.6799 167.729 35.8722 169.933 31.7825C172.137 27.6928 179.568 13.812 180.782 11.7938C180.009 11.7938 179.816 11.7938 178.85 11.7938C178.657 12.1801 178.431 12.5663 178.431 12.5663C178.431 12.5663 177.26 14.6455 176.418 16.345C175.396 18.2608 174.119 20.5597 172.969 22.6032L171.181 25.9238L167.053 18.9326L162.821 11.8151L156.158 11.8043C152.493 11.7985 150.812 11.7938 150.619 11.7938ZM195.073 11.7938C195.073 11.9869 195.073 12.5663 195.073 12.9526H202.026V25.3127V37.6729H208.013H214V25.3127V12.9526H217.701C220.491 12.9526 220.856 12.9526 221.338 12.9526C221.338 12.5663 221.338 12.3732 221.338 11.7938C214.224 11.7378 195.459 11.7938 195.073 11.7938ZM94.4537 17.5876C94.4537 18.167 94.4537 18.1439 94.4537 19.1327C93.488 19.1327 92.7762 19.1327 91.5567 19.1327C91.5567 19.5189 91.5567 20.2729 91.5567 20.6777C92.1361 20.6777 91.9666 20.6777 92.9276 20.6777H94.4537V27.8119C94.4537 34.3897 94.388 35.1194 96.5592 36.7797C98.4749 38.1846 101.923 37.8015 103.967 37.1629C105.798 36.3313 107.973 34.4709 107.779 33.8103C107.393 33.3122 107.007 33.2195 105.569 34.6794C103.144 36.5026 103.144 36.1279 103.144 34.6794V20.6777H104.883C106.234 20.6777 106.428 20.6777 106.814 20.6777C106.814 20.2231 106.814 19.5189 106.814 19.1327H103.144V16.622C103.144 13.9858 103.144 14.3045 103.144 13.7251C100.953 14.5459 96.8678 16.6962 94.4537 17.5876ZM183.872 27.4371V37.6729H188.893H193.914V27.4371V17.2014H188.893H183.872V27.4371ZM67.9952 28.4028V37.6729H72.4371H76.8791V30.3684V23.0644L78.9054 22.0547C81.9405 20.5421 81.8262 21.8746 81.8262 30.0444V37.6729H86.2651H90.4743V29.8923C90.4743 21.5819 89.8686 20.6777 87.8437 19.7171C85.7618 18.7294 81.5956 19.062 78.9069 20.4309L76.8791 21.4633V20.298V19.1327H72.4371H67.9952V28.4028ZM114.925 19.8538C110.282 21.9705 108.02 26.6415 109.346 31.375C110.054 33.9042 112.221 37.0935 115.505 37.6814C117.902 38.3214 121.897 37.9761 123.895 36.956C126.123 35.8185 128.251 33.8845 128.251 32.9977C128.251 31.7474 127.205 32.0549 126.288 33.0087C124.689 34.6735 121.987 35.932 120.056 36.1251C118.778 36.2529 117.05 36.9901 117.108 33.5281L117.05 29.1753H122.805H128.637V27.811C128.637 24.7785 126.402 21.4266 123.468 20.0604C120.977 18.9009 117.215 18.8098 114.925 19.8538ZM131.727 28.4028V37.6729H136.266H140.494V31.5433V24.8804L141.633 23.7013C143.238 22.0149 144.034 21.6731 146.397 21.6572C148.12 21.646 148.539 21.5139 148.65 20.9488C148.86 19.8762 147.99 19.1327 146.525 19.1327C145.006 19.1327 144.123 19.5351 142.014 21.1883L140.494 22.3477V20.666V19.1327H136.396H131.727V28.4028ZM120.526 20.6777C121.298 21.2181 121.298 21.8229 121.298 24.7554V28.0165H119.174H117.05V24.9265C117.05 22.3513 117.178 21.5147 117.822 20.8708C118.788 20.0983 119.367 20.0604 120.526 20.6777Z" fill="#EF6A37"/>
<path d="M8.31006 8.31055V35.3193H21.8144L15.0622 21.8149L8.31006 8.31055Z" fill="white"/>
<path d="M35.3188 35.3193V8.31055L28.5666 21.8149L21.8144 35.3193H35.3188Z" fill="white"/>
<path d="M8.31006 8.31055V35.3193H21.8144M8.31006 8.31055L15.0622 21.8149M8.31006 8.31055H21.8144M35.3188 8.31055V35.3193H21.8144M35.3188 8.31055H21.8144M35.3188 8.31055L28.5666 21.8149M21.8144 35.3193L15.0622 21.8149M21.8144 35.3193L28.5666 21.8149M15.0622 21.8149L21.8144 8.31055M21.8144 8.31055L28.5666 21.8149" stroke="white" stroke-width="2.05401"/>
<circle cx="21.8147" cy="21.8147" r="20.7877" stroke="white" stroke-width="2.05401"/>
</svg>
