<svg width="280" height="280" viewBox="0 0 280 280" fill="none" xmlns="http://www.w3.org/2000/svg">
<path d="M25.7258 61.0003C19.2519 61.0003 14 66.2409 14 72.7071V207.293C14 213.758 19.2527 219 25.7258 219H254.274C260.748 219 266 213.759 266 207.293V72.7068C266 66.2417 260.747 61 254.274 61H25.7255L25.7258 61.0003ZM96.6322 80.0191C111.017 80.0191 124.227 85.0155 134.598 93.3613C125.873 101.155 119.365 111.395 116.154 123.002H121.187C124.15 113.427 129.534 104.902 136.629 98.1415C143.725 104.902 149.108 113.427 152.072 123.002H157.183C153.928 111.457 147.411 101.278 138.693 93.5344C149.083 85.0826 162.345 80.0188 176.792 80.0188C210.129 80.0188 237.154 107.003 237.154 140.291C237.154 173.579 210.129 200.563 176.792 200.563C162.105 200.563 148.638 195.329 138.173 186.623C147.535 178.492 154.436 167.591 157.593 155.19H152.67C149.868 165.598 144.227 174.856 136.629 182.095C129.031 174.856 123.398 165.598 120.596 155.19H115.91C119.085 167.411 125.896 178.16 135.117 186.215C124.671 194.813 111.257 199.981 96.632 199.981C63.2949 199.981 36.2705 173.127 36.2705 140C36.2705 106.873 63.2949 80.0191 96.6322 80.0191ZM172.264 122.389C165.011 122.389 157.955 128.719 157.955 140.605C157.955 148.487 161.766 153.688 169.263 153.688C171.383 153.689 174.76 152.824 174.76 152.824L175.878 145.936C175.878 145.936 172.796 147.493 170.681 147.493C166.224 147.493 164.436 144.071 164.436 140.393C164.436 132.933 168.27 128.828 172.539 128.828C175.741 128.828 178.312 130.636 178.312 130.636L179.336 123.937C179.336 123.937 175.53 122.389 172.264 122.389ZM233.24 122.971L226.932 122.986L225.577 131.273C225.577 131.273 223.206 128.057 219.498 128.057C213.732 128.057 208.93 134.896 208.93 142.76C208.93 147.836 211.486 152.815 216.726 152.815C220.495 152.815 222.585 150.229 222.585 150.229L222.309 152.438H228.436L233.24 122.971ZM52.5716 123.057L47.5475 152.595H53.6033L57.4306 130.322L57.9976 152.595H62.3288L70.4086 130.322L66.8255 152.595H73.2593L78.2206 123.057H68.2666L62.069 141.179L61.7461 123.057H52.5718L52.5716 123.057ZM115.839 124.975C115.703 125.112 112.178 145.406 112.178 147.878C112.178 151.538 114.232 153.172 117.123 153.146C119.195 153.128 120.799 152.609 121.541 152.391C121.619 152.37 121.769 152.328 121.769 152.328L122.549 147.045C122.125 147.045 121.501 147.226 120.95 147.226C118.792 147.226 118.553 146.079 118.69 145.228L120.431 134.45H123.714L124.51 128.608H121.415L122.045 124.975H115.839ZM189.038 127.947C184.811 127.947 181.572 129.339 181.572 129.339L180.674 134.764C180.674 134.764 183.349 133.655 187.392 133.655C189.687 133.655 191.368 133.917 191.368 135.825C191.368 136.984 191.164 137.414 191.164 137.414C191.164 137.414 189.349 137.256 188.51 137.256C183.18 137.256 177.579 139.589 177.579 146.604C177.579 152.132 181.256 153.397 183.533 153.397C187.882 153.397 189.757 150.513 189.857 150.504L189.652 152.91H195.078L197.503 135.55C197.504 128.184 191.22 127.947 189.038 127.947V127.947ZM87.2531 127.979C83.0109 127.979 79.7561 129.37 79.7561 129.37L78.8584 134.795C78.8584 134.795 81.5422 133.687 85.5994 133.687C87.9032 133.687 89.5921 133.95 89.5921 135.857C89.5921 137.015 89.3872 137.445 89.3872 137.445C89.3872 137.445 87.567 137.288 86.7256 137.288C81.3749 137.288 75.7558 139.616 75.7558 146.628C75.7558 152.153 79.4396 153.421 81.7249 153.421C86.0898 153.421 87.972 150.536 88.0723 150.528L87.8674 152.933H93.3169L95.7502 135.582C95.7502 128.22 89.4434 127.979 87.2531 127.979V127.979ZM106.5 127.979C101.944 127.979 97.3174 129.815 97.3174 136.085C97.3174 143.189 105.027 142.472 105.027 145.464C105.027 147.462 102.876 147.627 101.216 147.627C98.3428 147.627 95.7596 146.636 95.7502 146.683L94.9234 152.108C95.0721 152.154 96.6718 152.871 101.838 152.871C103.225 152.871 111.154 153.222 111.154 144.977C111.154 137.268 103.814 138.796 103.814 135.699C103.814 134.158 105.006 133.671 107.193 133.671C108.061 133.671 111.406 133.946 111.406 133.946L112.178 128.466C112.178 128.467 110.019 127.979 106.5 127.979ZM134.976 127.979C128.645 127.98 123.959 134.776 123.959 142.453C123.959 151.314 129.831 153.421 134.834 153.421C139.452 153.421 141.488 152.391 141.488 152.391L142.591 146.345C142.591 146.345 139.078 147.886 135.905 147.886C129.145 147.886 130.329 142.862 130.329 142.862H143.126C143.126 142.862 143.953 138.802 143.953 137.146C143.953 133.015 141.888 127.979 134.976 127.979ZM157.9 128.238C155.048 128.238 152.93 132.067 152.93 132.067L153.497 128.553H147.576L143.599 152.816H150.143C151.996 142.455 152.335 134.042 156.758 135.582C157.532 131.571 158.283 130.022 159.128 128.325C159.128 128.325 158.732 128.238 157.9 128.238ZM210.922 128.238C208.07 128.238 205.953 132.067 205.953 132.067L206.52 128.553H200.598L196.621 152.816H203.157C205.012 142.455 205.359 134.042 209.78 135.582C210.556 131.571 211.306 130.022 212.151 128.325C212.151 128.325 211.753 128.238 210.922 128.238ZM134.944 133.451C138.539 133.451 137.882 137.503 137.882 137.83H130.802C130.802 137.412 131.471 133.451 134.944 133.451ZM220.49 133.923C222.779 133.922 223.955 135.465 223.955 139.096C223.955 142.39 222.291 146.793 218.844 146.793C216.557 146.793 215.482 144.907 215.482 141.95C215.482 137.115 217.697 133.923 220.49 133.923ZM189.045 142.178C189.979 142.179 190.172 142.27 190.329 142.312C190.306 142.308 190.302 142.312 190.392 142.327C190.51 143.408 189.738 148.476 186.005 148.476C184.081 148.476 183.588 146.948 183.588 146.046C183.588 144.288 184.505 142.178 189.045 142.178ZM87.2611 142.202C88.3213 142.203 88.4369 142.321 88.6156 142.351C88.7341 143.431 87.9589 148.491 84.2134 148.491C82.2814 148.491 81.7801 146.971 81.7801 146.07C81.7801 144.313 82.7024 142.202 87.2611 142.202Z" fill="#D2D2D2"/>
</svg>
