<svg width="15" height="15" viewBox="0 0 15 15" fill="none" xmlns="http://www.w3.org/2000/svg">
<path d="M7.58106 14.0449C6.61765 14.0449 5.71024 13.8608 4.85884 13.4927C4.00743 13.1245 3.26595 12.6242 2.63439 11.9916C2.00284 11.359 1.50247 10.6175 1.13328 9.76714C0.764096 8.91677 0.580022 8.00936 0.581059 7.04492C0.581059 6.07892 0.765133 5.17074 1.13328 4.32037C1.50143 3.47 2.0018 2.72929 2.63439 2.09826C3.26698 1.46722 4.00847 0.967108 4.85884 0.597923C5.70921 0.228738 6.61661 0.0444044 7.58106 0.044923C8.54706 0.044923 9.45524 0.228997 10.3056 0.597145C11.156 0.965293 11.8969 1.46566 12.5285 2.09826C13.1601 2.73085 13.6599 3.47155 14.0281 4.32037C14.3962 5.16918 14.5805 6.07736 14.5811 7.04492C14.5811 8.00833 14.397 8.91573 14.0288 9.76714C13.6607 10.6185 13.1603 11.36 12.5277 11.9916C11.8951 12.6231 11.1544 13.1235 10.3056 13.4927C9.4568 13.8619 8.54861 14.046 7.58106 14.0449ZM7.58106 13.2734C8.03735 12.6869 8.4138 12.1111 8.71039 11.5459C9.00698 10.9807 9.24783 10.3481 9.43295 9.64814H5.72917C5.9345 10.3875 6.18028 11.0398 6.4665 11.605C6.75272 12.1702 7.12424 12.7263 7.58106 13.2734ZM6.59095 13.1567C6.22798 12.7289 5.89665 12.2 5.59695 11.57C5.29724 10.9405 5.07428 10.2997 4.92806 9.64736H1.9445C2.39043 10.6149 3.02224 11.4083 3.83995 12.0274C4.65765 12.6465 5.57439 13.0229 6.59017 13.1567M8.57039 13.1567C9.58565 13.0229 10.5024 12.6465 11.3206 12.0274C12.1388 11.4083 12.7706 10.6149 13.2161 9.64736H10.2341C10.037 10.3095 9.78891 10.9556 9.48972 11.5856C9.19002 12.2151 8.88358 12.7388 8.57039 13.1567ZM1.62717 8.86959H4.7655C4.70639 8.5507 4.66491 8.23985 4.64106 7.93703C4.61617 7.63422 4.60372 7.33685 4.60372 7.04492C4.60372 6.75299 4.61591 6.45562 4.64028 6.15281C4.66465 5.84999 4.70613 5.53888 4.76472 5.21948H1.62873C1.54421 5.48911 1.4781 5.78285 1.43039 6.1007C1.38269 6.41855 1.35884 6.73329 1.35884 7.04492C1.35884 7.35655 1.38243 7.67129 1.42961 7.98914C1.4768 8.30699 1.54291 8.60047 1.62795 8.86959M5.54406 8.86959H9.61806C9.67717 8.5507 9.71865 8.24477 9.7425 7.95181C9.76635 7.65885 9.77906 7.35655 9.78061 7.04492C9.78217 6.73329 9.76998 6.43099 9.74406 6.13803C9.71813 5.84507 9.67665 5.53914 9.61961 5.22025H5.54328C5.48469 5.53914 5.44321 5.84507 5.41884 6.13803C5.39447 6.43099 5.38228 6.73329 5.38228 7.04492C5.38228 7.35655 5.39447 7.65885 5.41884 7.95181C5.44321 8.24477 5.48546 8.5507 5.54406 8.86959ZM10.3966 8.86959H13.5342C13.6187 8.59996 13.6848 8.30647 13.7325 7.98914C13.7802 7.67181 13.8038 7.35707 13.8033 7.04492C13.8028 6.73277 13.7792 6.41803 13.7325 6.1007C13.6858 5.78337 13.6197 5.48988 13.5342 5.22025H10.3958C10.4549 5.53914 10.4964 5.84999 10.5203 6.15281C10.5452 6.45562 10.5576 6.75299 10.5576 7.04492C10.5576 7.33685 10.5454 7.63422 10.5211 7.93703C10.4967 8.23985 10.4552 8.55096 10.3966 8.87036M10.2348 4.44248H13.2168C12.7611 3.45522 12.1368 2.66188 11.3439 2.06248C10.5506 1.46307 9.62635 1.08196 8.57117 0.919145C8.93413 1.39618 9.26054 1.94218 9.55039 2.55714C9.84024 3.17211 10.0684 3.80055 10.2348 4.44248ZM5.72917 4.44248H9.43295C9.22761 3.7124 8.97432 3.05233 8.67306 2.46226C8.3718 1.87218 8.0078 1.32359 7.58106 0.816478C7.15432 1.32307 6.79032 1.87166 6.48906 2.46226C6.18832 3.05233 5.93502 3.7124 5.72917 4.44248ZM1.94528 4.44248H4.92728C5.09424 3.80003 5.32239 3.17159 5.61172 2.55714C5.90106 1.9427 6.22747 1.39644 6.59095 0.918367C5.52591 1.0817 4.59932 1.4654 3.81117 2.06948C3.02302 2.67355 2.4008 3.46429 1.9445 4.4417" fill="black"/>
</svg>
