<svg width="22" height="22" viewBox="0 0 22 22" fill="none" xmlns="http://www.w3.org/2000/svg">
<path d="M8.8751 2C7.97228 1.99991 7.07828 2.17765 6.24416 2.52309C5.41004 2.86852 4.65213 3.37488 4.01371 4.01324C3.37529 4.65161 2.86886 5.40948 2.52335 6.24358C2.17783 7.07767 2 7.97166 2 8.87449C1.99991 9.77738 2.17767 10.6714 2.52315 11.5056C2.86862 12.3398 3.37503 13.0978 4.01346 13.7362C4.65189 14.3746 5.40984 14.8811 6.244 15.2265C7.07817 15.572 7.97222 15.7498 8.8751 15.7497C10.4795 15.7497 11.9529 15.1815 13.1229 14.2609L13.7359 14.8739C13.6101 15.1185 13.5655 15.3969 13.6087 15.6685C13.6519 15.9402 13.7807 16.191 13.9762 16.3844L17.1949 19.6248C17.6944 20.1251 18.512 20.1251 19.0122 19.6248L19.6253 19.0118C19.8653 18.7703 20 18.4436 20 18.1031C20 17.7626 19.8653 17.4359 19.6253 17.1944L16.3849 13.9757C16.1901 13.7815 15.9378 13.6553 15.6656 13.6159C15.3933 13.5765 15.1156 13.626 14.8737 13.7571L14.2607 13.1441C15.0631 12.1314 15.564 10.9132 15.7058 9.62894C15.8476 8.34471 15.6246 7.04652 15.0624 5.88321C14.5002 4.71991 13.6215 3.73858 12.5272 3.05176C11.4329 2.36493 10.1671 2.00042 8.8751 2ZM8.8751 3.26953C10.3616 3.26953 11.7872 3.86005 12.8384 4.91118C13.8895 5.96232 14.48 7.38796 14.48 8.87449C14.48 10.361 13.8895 11.7867 12.8384 12.8378C11.7872 13.8889 10.3616 14.4795 8.8751 14.4795C7.38859 14.4795 5.96296 13.8889 4.91184 12.8378C3.86072 11.7867 3.27021 10.361 3.27021 8.87449C3.27021 7.38796 3.86072 5.96232 4.91184 4.91118C5.96296 3.86005 7.38859 3.26953 8.8751 3.26953ZM5.3279 7.10122C4.95422 7.70649 4.75717 8.40417 4.75901 9.11551C4.75818 9.61892 4.85672 10.1176 5.04898 10.5828C5.24125 11.0481 5.52345 11.4708 5.87942 11.8268C6.23538 12.1827 6.65811 12.465 7.12336 12.6572C7.58861 12.8495 8.08724 12.948 8.59065 12.9472C9.38204 12.9456 10.1539 12.701 10.8018 12.2466C10.6271 12.2628 10.4517 12.2698 10.2763 12.2676C9.62608 12.2693 8.98191 12.1424 8.38084 11.8944C7.77976 11.6463 7.23362 11.2819 6.7738 10.8222C6.31397 10.3624 5.94953 9.81632 5.70139 9.21527C5.45326 8.61422 5.32633 7.97007 5.3279 7.31981C5.3279 7.24695 5.3244 7.17409 5.3279 7.10122Z" fill="#050505"/>
</svg>
