<svg width="280" height="280" viewBox="0 0 280 280" fill="none" xmlns="http://www.w3.org/2000/svg">
<path d="M259.257 183.96L256.632 170.835H227.302L222.635 183.867L199.127 183.913C214.239 147.599 225.454 120.7 232.773 103.215C234.687 98.6417 238.082 96.3084 243.087 96.3434C246.913 96.3745 253.159 96.3784 261.823 96.3551L280 183.925L259.257 183.96ZM233.893 152.857H252.805L245.747 119.957L233.893 152.857ZM82.39 96.3317L106.027 96.3551L69.4867 183.972L45.5583 183.948C39.5412 160.805 33.599 137.643 27.7317 114.462C26.565 109.842 24.255 106.61 19.81 105.082C15.8356 103.721 9.23222 101.617 0 98.7701V96.3551H37.765C44.2983 96.3551 48.1133 99.5167 49.3383 106.003C50.575 112.506 53.6861 129.049 58.6717 155.633L82.39 96.3317ZM138.507 96.3551L119.828 183.96L97.3233 183.925L115.967 96.3317L138.507 96.3551ZM184.123 94.7334C190.855 94.7334 199.337 96.8334 204.213 98.7701L200.27 116.923C195.86 115.15 188.603 112.758 182.502 112.84C173.635 112.992 168.152 116.713 168.152 120.283C168.152 126.093 177.672 129.022 187.472 135.368C198.648 142.602 200.13 149.1 199.99 156.17C199.838 170.812 187.472 185.267 161.385 185.267C149.485 185.092 145.192 184.1 135.485 180.647L139.592 161.7C149.473 165.83 153.662 167.148 162.108 167.148C169.843 167.148 176.482 164.022 176.54 158.573C176.587 154.7 174.207 152.775 165.527 147.992C156.847 143.208 144.667 136.57 144.83 123.235C145.028 106.178 161.187 94.7334 184.123 94.7334Z" fill="#D2D2D2"/>
</svg>
