<svg width="29" height="29" viewBox="0 0 29 29" fill="none" xmlns="http://www.w3.org/2000/svg">
<rect x="9.70483" y="4.85254" width="9.70468" height="19.4094" fill="#EF6A37"/>
<path d="M14.4994 29C22.4178 29 28.9994 22.4324 28.9994 14.5C28.9994 6.58159 22.4032 0 14.4848 0C6.55308 0 0 6.58159 0 14.5C0 22.4324 6.56703 29 14.4994 29ZM14.4861 16.6326C13.7321 16.6326 13.3203 16.1916 13.2912 15.4377L13.0922 8.41638C13.0637 7.63394 13.6605 7.08017 14.4709 7.08017C15.2673 7.08017 15.8781 7.6485 15.8502 8.43033L15.6506 15.4389C15.6221 16.2062 15.1957 16.6332 14.4854 16.6332M14.4854 21.8646C13.6605 21.8646 12.8927 21.2108 12.8927 20.3289C12.8927 19.4476 13.6466 18.7943 14.4854 18.7943C15.3097 18.7943 16.077 19.4336 16.077 20.3289C16.077 21.2247 15.2952 21.8646 14.4854 21.8646Z" fill="#D4D9DD"/>
</svg>
