<svg width="36" height="36" viewBox="0 0 36 36" fill="none" xmlns="http://www.w3.org/2000/svg">
<path d="M18 6C19.2825 6 20.598 6.033 21.873 6.087L23.379 6.159L24.8205 6.2445L26.1705 6.336L27.4035 6.432C28.7416 6.53442 30.0007 7.10542 30.9593 8.04456C31.9179 8.9837 32.5146 10.2308 32.6445 11.5665L32.7045 12.204L32.817 13.569C32.922 14.9835 33 16.5255 33 18C33 19.4745 32.922 21.0165 32.817 22.431L32.7045 23.796C32.685 24.015 32.6655 24.2265 32.6445 24.4335C32.5146 25.7694 31.9176 27.0167 30.9587 27.9559C29.9998 28.8951 28.7403 29.4659 27.402 29.568L26.172 29.6625L24.822 29.7555L23.379 29.841L21.873 29.913C20.5828 29.9691 19.2915 29.9981 18 30C16.7085 29.9981 15.4173 29.9691 14.127 29.913L12.621 29.841L11.1795 29.7555L9.8295 29.6625L8.5965 29.568C7.25843 29.4656 5.99933 28.8946 5.04071 27.9554C4.08209 27.0163 3.48536 25.7692 3.3555 24.4335L3.2955 23.796L3.183 22.431C3.06831 20.9567 3.00727 19.4787 3 18C3 16.5255 3.078 14.9835 3.183 13.569L3.2955 12.204C3.315 11.985 3.3345 11.7735 3.3555 11.5665C3.48531 10.231 4.08183 8.98412 5.04014 8.04501C5.99845 7.10591 7.25719 6.53475 8.595 6.432L9.8265 6.336L11.1765 6.2445L12.6195 6.159L14.1255 6.087C15.4163 6.03095 16.708 6.00194 18 6ZM18 9C16.7625 9 15.489 9.033 14.25 9.084L12.783 9.1545L11.3745 9.237L10.0515 9.327L8.8395 9.4215C8.2025 9.4667 7.60207 9.73597 7.14464 10.1816C6.68721 10.6272 6.40233 11.2204 6.3405 11.856C6.165 13.6695 6 15.927 6 18C6 20.073 6.165 22.3305 6.3405 24.144C6.468 25.452 7.506 26.469 8.8395 26.5785L10.0515 26.6715L11.3745 26.7615L12.783 26.8455L14.25 26.916C15.489 26.967 16.7625 27 18 27C19.2375 27 20.511 26.967 21.75 26.916L23.217 26.8455L24.6255 26.763L25.9485 26.673L27.1605 26.5785C27.7975 26.5333 28.3979 26.264 28.8554 25.8184C29.3128 25.3728 29.5977 24.7796 29.6595 24.144C29.835 22.3305 30 20.073 30 18C30 15.927 29.835 13.6695 29.6595 11.856C29.5977 11.2204 29.3128 10.6272 28.8554 10.1816C28.3979 9.73597 27.7975 9.4667 27.1605 9.4215L25.9485 9.3285L24.6255 9.2385L23.217 9.1545L21.75 9.084C20.5007 9.03025 19.2504 9.00224 18 9ZM15 14.3625C14.9999 14.2159 15.0356 14.0715 15.104 13.9418C15.1725 13.8122 15.2715 13.7012 15.3926 13.6186C15.5137 13.5359 15.6532 13.4841 15.7988 13.4676C15.9445 13.4511 16.092 13.4705 16.2285 13.524L16.35 13.584L22.65 17.22C22.7755 17.2924 22.8816 17.394 22.9594 17.5162C23.0372 17.6383 23.0843 17.7775 23.0968 17.9218C23.1094 18.0661 23.0869 18.2113 23.0313 18.345C22.9757 18.4787 22.8886 18.5971 22.7775 18.69L22.65 18.78L16.35 22.4175C16.223 22.491 16.08 22.5324 15.9334 22.538C15.7868 22.5436 15.6411 22.5133 15.5089 22.4497C15.3767 22.3861 15.262 22.2912 15.1749 22.1731C15.0878 22.0551 15.0308 21.9176 15.009 21.7725L15 21.6375V14.3625Z" fill="white"/>
</svg>
